<svg width="247" height="219" viewBox="0 0 247 219" fill="none" xmlns="http://www.w3.org/2000/svg">
<path d="M68.6111 13.6875C53.4738 13.6875 41.1667 25.9635 41.1667 41.0625V136.875C41.1667 151.974 53.4738 164.25 68.6111 164.25H219.556C234.693 164.25 247 151.974 247 136.875V41.0625C247 25.9635 234.693 13.6875 219.556 13.6875H68.6111ZM169.813 59.3268L210.979 120.921C213.08 124.086 213.295 128.106 211.494 131.443C209.693 134.779 206.219 136.875 202.403 136.875H140.653H120.069H85.7639C81.8188 136.875 78.2167 134.608 76.5014 131.058C74.7861 127.508 75.2578 123.273 77.745 120.193L105.189 85.9746C107.162 83.5365 110.078 82.125 113.208 82.125C116.339 82.125 119.298 83.5365 121.227 85.9746L128.646 95.2137L152.66 59.284C154.589 56.4609 157.806 54.75 161.236 54.75C164.667 54.75 167.883 56.4609 169.813 59.3268ZM82.3333 54.75C82.3333 51.1198 83.7791 47.6384 86.3525 45.0715C88.9259 42.5046 92.4162 41.0625 96.0556 41.0625C99.6949 41.0625 103.185 42.5046 105.759 45.0715C108.332 47.6384 109.778 51.1198 109.778 54.75C109.778 58.3802 108.332 61.8616 105.759 64.4285C103.185 66.9954 99.6949 68.4375 96.0556 68.4375C92.4162 68.4375 88.9259 66.9954 86.3525 64.4285C83.7791 61.8616 82.3333 58.3802 82.3333 54.75ZM20.5833 51.3281C20.5833 45.6393 15.995 41.0625 10.2917 41.0625C4.58837 41.0625 0 45.6393 0 51.3281V147.141C0 179.263 26.1151 205.312 58.3194 205.312H195.542C201.245 205.312 205.833 200.736 205.833 195.047C205.833 189.358 201.245 184.781 195.542 184.781H58.3194C37.4788 184.781 20.5833 167.929 20.5833 147.141V51.3281Z" fill="#EBEBEB"/>
</svg>
