<svg width="250" height="250" viewBox="0 0 250 250" fill="none" xmlns="http://www.w3.org/2000/svg">
<path d="M125 0C56.0924 0 0 56.0963 0 124.998C0 193.907 56.0924 250 125 250C193.904 250 250 193.907 250 124.998C250 56.0996 193.904 0 125 0ZM125 20.7799C172.551 20.7799 212.821 53.2599 225.33 96.4603C225.343 96.5957 225.343 96.6795 225.369 96.8181C227.699 113.92 218.452 114.604 217.379 114.613H179.616H177.244C174.978 113.924 171.152 111.21 165.866 102.03C164.809 100.196 163.936 98.9776 163.188 98.1879C154.672 86.0559 140.768 77.9141 125.003 77.9141C109.062 77.9141 94.8378 86.2267 86.3738 98.5779C85.6937 99.3773 84.9331 100.438 84.0145 102.03C78.7253 111.213 74.9027 113.924 72.6465 114.613H70.2678H32.6214C31.5481 114.604 22.3009 113.92 24.6313 96.8181C24.6506 96.6795 24.6506 96.5957 24.6667 96.4603C37.1693 53.2599 77.4489 20.7799 125 20.7799ZM151.311 125.002C151.311 139.548 139.543 151.319 125 151.319C110.454 151.319 98.6862 139.548 98.6862 125.002C98.6862 110.462 110.454 98.6908 125 98.6908C139.543 98.6908 151.311 110.462 151.311 125.002ZM125 229.23C77.4489 229.23 37.179 196.75 24.6603 153.549C24.6442 153.414 24.6442 153.327 24.6248 153.185C22.3074 136.225 31.3709 135.416 32.5699 135.393H73.1944C75.3926 136.302 78.7833 139.071 83.299 146.597C91.1892 161.585 106.722 172.096 124.649 172.096C141.973 172.096 157.493 162.304 165.637 148.125C165.718 147.989 165.779 147.915 165.86 147.777C170.736 139.313 174.369 136.35 176.673 135.393H217.42C218.616 135.416 227.68 136.225 225.365 153.185C225.34 153.327 225.34 153.414 225.327 153.549C212.821 196.747 172.551 229.23 125 229.23Z" fill="#EBEBEB"/>
</svg>
