<svg version="1.1" id="Layer_1" xmlns="http://www.w3.org/2000/svg" xmlns:xlink="http://www.w3.org/1999/xlink" x="0px" y="0px"
	 width="100%" viewBox="0 0 592 592" enable-background="new 0 0 592 592" xml:space="preserve">
<path fill="#000000" opacity="1.000000" stroke="none" 
	d="
M272.068909,56.763351 
	C307.973663,51.464508 342.440765,55.218136 375.000854,70.333084 
	C431.280121,96.458885 466.421082,139.960358 479.480743,200.898407 
	C481.893341,212.155991 482.910339,223.554764 483.320465,235.056015 
	C483.823853,249.173080 476.147461,258.624084 465.709686,266.290924 
	C446.788116,280.189423 424.780518,286.912964 402.324493,292.196808 
	C379.440002,297.581482 356.264862,301.162537 332.674591,301.434723 
	C331.780609,301.445007 330.651337,301.048126 329.866302,302.510742 
	C347.327454,302.671722 364.435913,304.777771 381.434662,307.691467 
	C406.784607,312.036591 431.664551,318.032196 454.699768,330.026093 
	C458.846863,332.185394 462.751221,334.708740 466.567871,337.412842 
	C479.396851,346.502106 484.972107,358.498779 483.293549,374.422180 
	C480.935089,396.795227 476.337372,418.496277 466.444275,438.792938 
	C439.397247,494.282684 395.752319,529.530701 335.120697,540.870789 
	C270.082489,553.034973 213.767517,533.901123 167.939789,486.173645 
	C141.087387,458.208130 125.633392,424.277161 120.646248,385.734467 
	C119.878372,379.800049 119.393898,373.822937 118.964256,367.852173 
	C118.257027,358.023712 122.170212,350.004669 129.050980,343.271698 
	C140.419891,332.146973 154.583786,325.876923 169.241684,320.664062 
	C196.227051,311.067169 224.218048,306.276215 252.648956,303.556000 
	C259.117950,302.937073 265.578369,302.742462 272.191864,302.581207 
	C271.850586,300.917145 270.629181,301.430267 269.870026,301.424622 
	C244.591614,301.236694 219.819809,297.174164 195.364090,291.205536 
	C175.402344,286.333679 156.034073,279.793427 138.708832,268.243103 
	C123.979080,258.423096 117.114914,245.385132 118.696518,227.186691 
	C121.366135,196.468918 129.138611,167.544479 145.719849,141.384506 
	C174.414093,96.114059 215.057571,68.067154 267.723022,57.619644 
	C269.027893,57.360794 270.328186,57.078876 272.068909,56.763351 
M270.901245,333.404297 
	C261.003937,334.692993 251.065109,335.725006 241.217041,337.318115 
	C210.577179,342.274567 181.199341,351.046753 154.386887,367.152191 
	C147.150360,371.498932 140.224854,376.319458 133.963577,382.966003 
	C141.197327,389.403534 148.872726,393.956299 157.080429,397.596344 
	C183.988358,409.529755 212.511581,415.101501 241.513931,418.664276 
	C244.564484,419.039032 246.773712,419.385162 247.320602,423.251648 
	C251.908127,455.684540 282.459991,476.693481 314.154297,468.680725 
	C337.055206,462.891113 350.432312,447.481812 355.110229,424.462708 
	C355.741699,421.355377 356.233337,419.084137 360.328247,418.651581 
	C383.381012,416.216644 406.051483,411.770966 428.049774,404.328400 
	C441.029083,399.937164 453.494598,394.464355 464.605621,386.208984 
	C467.976044,383.704742 467.879333,381.929291 464.769073,379.320221 
	C457.203064,372.973450 449.114716,367.421692 440.396576,362.827637 
	C404.986603,344.168365 366.757080,336.274261 327.239532,333.283142 
	C308.763031,331.884613 290.301758,332.207428 270.901245,333.404297 
M406.110931,504.581451 
	C436.552948,481.967407 457.594330,452.635834 469.957550,415.468750 
	C462.202393,420.773254 455.497131,425.346802 448.232849,428.998688 
	C417.270874,444.563965 383.901581,451.119751 349.889801,455.225403 
	C347.651855,455.495514 345.746948,455.892212 344.099518,457.587677 
	C321.100861,481.257233 282.542114,481.663147 259.140778,458.476898 
	C257.266632,456.619965 255.104080,455.552368 252.505768,455.425476 
	C244.348083,455.026947 236.312622,453.647186 228.282410,452.313782 
	C194.185272,446.651978 161.282806,437.777008 132.563858,415.772858 
	C133.069565,417.369232 133.333145,418.275574 133.642197,419.166138 
	C144.843582,451.444550 163.505539,478.609283 190.216446,499.907227 
	C228.654648,530.555847 272.538849,543.075195 321.425140,537.824341 
	C352.410706,534.496155 380.396210,523.363464 406.110931,504.581451 
M320.175018,209.727921 
	C332.265808,202.289246 339.132721,191.405273 339.517212,177.314392 
	C340.124481,155.056931 321.610291,136.181824 297.511322,138.210999 
	C275.576141,140.057968 260.440002,159.339157 262.654449,179.783447 
	C265.719086,208.076996 294.012512,222.801926 320.175018,209.727921 
M254.950500,77.487129 
	C241.317551,81.976707 228.265945,87.749969 216.037979,95.295715 
	C198.573441,106.072884 183.146851,119.046593 172.125473,136.657303 
	C170.948639,138.537720 168.817719,140.348282 170.726776,144.438446 
	C182.510117,124.523445 198.366302,109.991554 217.107529,98.422302 
	C235.668152,86.964523 255.905197,79.680031 276.989899,74.207275 
	C269.427338,72.853127 262.651062,75.528221 254.950500,77.487129 
M318.813690,276.907684 
	C317.937805,272.060944 315.635986,268.281372 311.002594,266.119019 
	C306.201935,263.878571 298.410828,265.636810 296.295715,269.793213 
	C293.420319,275.443726 298.567719,277.222443 301.568573,279.975555 
	C302.050934,280.418091 302.625854,280.797699 303.219543,281.074280 
	C305.795532,282.274353 307.391846,284.185669 308.037292,286.999359 
	C308.693756,289.861328 310.610474,291.196259 313.542877,290.722961 
	C316.371582,290.266449 317.833557,288.557770 318.016754,285.630035 
	C318.181824,282.992157 318.575836,280.368591 318.813690,276.907684 
M183.414429,187.319717 
	C188.855164,183.684311 195.112564,181.642715 201.180145,178.800629 
	C200.265305,177.349426 199.221283,176.990585 198.316879,177.351639 
	C193.949112,179.095230 189.497498,178.278549 185.037048,178.126144 
	C183.256363,178.065292 181.338699,178.421738 179.685959,179.089539 
	C177.465637,179.986694 174.302246,180.769333 174.664185,183.791687 
	C174.999817,186.594574 178.169403,186.298309 180.344040,186.865646 
	C181.147095,187.075150 181.979843,187.170853 183.414429,187.319717 
M160.889359,165.268768 
	C164.816498,162.303696 165.395309,158.138977 165.174423,153.671371 
	C161.765076,156.719498 159.856964,160.366638 160.889359,165.268768 
z"/>
<path fill="#000000" opacity="1.000000" stroke="none" 
	d="
M341.296082,519.258850 
	C354.615967,516.264160 366.902313,511.497864 378.489502,505.279999 
	C389.763184,499.230377 400.873383,492.801605 411.554443,485.590424 
	C405.466766,491.571777 399.159119,497.199219 391.962006,501.772614 
	C370.873596,515.173096 348.072998,523.903870 323.174316,526.698914 
	C315.257141,527.587585 307.294250,528.372498 299.292938,528.020203 
	C297.660156,527.948303 295.468536,528.016907 295.482483,525.805115 
	C295.497375,523.440979 297.796387,523.813171 299.341522,523.853577 
	C313.398621,524.221741 327.204773,522.338013 341.296082,519.258850 
z"/>
<path fill="#000000" opacity="1.000000" stroke="none" 
	d="
M320.872986,161.258652 
	C329.415100,174.535583 326.546570,189.982010 314.439636,197.413300 
	C302.010498,205.042374 286.555481,201.269760 279.337555,188.844788 
	C272.978790,177.898758 275.951691,163.778564 286.184692,156.323715 
	C297.220642,148.283905 310.670685,150.097916 320.872986,161.258652 
M302.959595,196.412186 
	C314.602020,195.293655 324.253113,183.509323 319.951843,170.074799 
	C316.863678,160.429352 306.815796,154.586151 297.177826,156.631897 
	C286.494598,158.899506 280.171753,167.818954 281.240204,179.114517 
	C282.167053,188.912689 291.183594,196.426071 302.959595,196.412186 
z"/>
</svg>