<svg width="250" height="278" viewBox="0 0 250 278" fill="none" xmlns="http://www.w3.org/2000/svg">
<path d="M119.891 70.7488L83.3696 86.0606V23.4563L53.6413 126.783L83.3696 113.643V184.392L119.891 70.7488ZM74.6739 18.2438L73.9674 20.7957L65.7065 49.5188C43.8043 57.9348 28.2609 79.1649 28.2609 103.979C28.2609 132.376 46.9022 156.049 73.587 161.262V190.365C31.25 184.664 0 147.905 0 104.033C0 60.3238 32.5 24.1078 74.6739 18.2438ZM243.913 261.059C237.826 267.141 231.359 267.738 228.37 266.761C225.435 265.783 213.641 255.955 195.543 242.653C177.446 229.296 177.283 223.269 172.174 211.866C167.065 200.518 155.652 188.736 140.924 183.415L135.652 175.433C122.228 184.609 106.848 190.039 91.4674 191.016L92.6087 187.433L101.25 160.556C126.522 154.095 145.217 131.236 145.217 103.979C145.217 74.3867 124.348 48.5414 93.0435 45.8266V17.5379C138.261 20.307 173.913 57.9891 173.913 104.033C173.913 122.277 167.826 139.163 158.152 153.117L166.087 158.33C171.413 173.044 183.207 184.392 194.565 189.496C205.924 194.6 212.065 194.763 225.435 212.844C238.804 230.87 248.641 242.653 249.62 245.585C250.598 248.517 250 254.978 243.913 261.059ZM238.533 251.34C238.533 248.951 236.576 246.996 234.185 246.996C231.793 246.996 229.837 248.951 229.837 251.34C229.837 253.729 231.793 255.684 234.185 255.684C236.576 255.684 238.533 253.729 238.533 251.34Z" fill="#EBEBEB"/>
</svg>
