<svg width="252" height="223" viewBox="0 0 252 223" fill="none" xmlns="http://www.w3.org/2000/svg">
<g clip-path="url(#clip0_32_8)">
<path d="M138.644 7.83984C136.325 3.04883 131.425 0 126.044 0C120.662 0 115.806 3.04883 113.444 7.83984L85.3124 65.4627L22.4874 74.6963C17.2374 75.4803 12.8624 79.1389 11.2437 84.1477C9.62494 89.1564 10.9374 94.6879 14.6999 98.39L60.2874 143.295L49.5249 206.754C48.6499 211.981 50.8374 217.294 55.1687 220.387C59.4999 223.479 65.2312 223.871 69.9562 221.388L126.087 191.554L182.219 221.388C186.944 223.871 192.675 223.523 197.006 220.387C201.337 217.251 203.525 211.981 202.65 206.754L191.844 143.295L237.431 98.39C241.194 94.6879 242.55 89.1564 240.887 84.1477C239.225 79.1389 234.894 75.4803 229.644 74.6963L166.775 65.4627L138.644 7.83984Z" fill="#EBEBEB"/>
</g>
<defs>
<clipPath id="clip0_32_8">
<rect width="252" height="223" fill="white"/>
</clipPath>
</defs>
</svg>
