<?xml version="1.0" encoding="UTF-8"?>
<!-- Generator: visioncortex VTracer 0.6.2 -->
<svg version="1.1" xmlns="http://www.w3.org/2000/svg" width="1280" height="1280">
<path d="M0 0 C1.24716797 -0.03738281 2.49433594 -0.07476563 3.77929688 -0.11328125 C11.99521057 -0.19099352 17.61872001 0.96234252 24.5625 5.375 C25.48470337 5.90613403 25.48470337 5.90613403 26.42553711 6.44799805 C29.59616662 8.36456201 31.14180724 9.98719418 32.5625 13.375 C33.00916016 13.81134766 33.45582031 14.24769531 33.91601562 14.69726562 C40.5072788 21.41362988 42.26518829 29.00064129 42.1875 38.1484375 C42.14625 39.37820312 42.105 40.60796875 42.0625 41.875 C42.0521875 43.13570312 42.041875 44.39640625 42.03125 45.6953125 C41.87342033 54.90861951 41.87342033 54.90861951 39.5625 58.375 C39.31599768 60.68035694 39.15972807 62.99604134 39.0625 65.3125 C38.78380648 71.93843838 38.78380648 71.93843838 37.5625 74.34765625 C36.03493814 77.44454925 36.19730364 80.45098743 36.0625 83.875 C35.88428525 88.40165476 35.58806848 91.38920396 33.5625 95.375 C33.39568891 98.29152174 33.39568891 98.29152174 33.5625 101.375 C33.78502252 106.93806306 33.78502252 106.93806306 32.59765625 109.26953125 C31.05638071 112.40442753 31.13380319 115.63256956 31 119.0625 C30.68383072 126.25366928 30.68383072 126.25366928 29.5625 127.375 C29.32522205 130.49727655 29.16696344 133.61180294 29.04492188 136.74023438 C28.84841753 140.53313896 28.23643689 143.03369068 26.5625 146.375 C26.31974443 148.86876172 26.16106732 151.37139015 26.0625 153.875 C25.88428525 158.40165476 25.58806848 161.38920396 23.5625 165.375 C23.39568891 168.29152174 23.39568891 168.29152174 23.5625 171.375 C23.78502252 176.93806306 23.78502252 176.93806306 22.59765625 179.26953125 C21.05638071 182.40442753 21.13380319 185.63256956 21 189.0625 C20.68383072 196.25366928 20.68383072 196.25366928 19.5625 197.375 C19.32522205 200.49727655 19.16696344 203.61180294 19.04492188 206.74023438 C18.84841753 210.53313896 18.23643689 213.03369068 16.5625 216.375 C16.31974443 218.86876172 16.16106732 221.37139015 16.0625 223.875 C15.88428525 228.40165476 15.58806848 231.38920396 13.5625 235.375 C13.39568891 238.29152174 13.39568891 238.29152174 13.5625 241.375 C13.78498804 246.93720096 13.78498804 246.93720096 12.59375 249.28125 C11.04980281 252.41593065 11.19901963 255.40740144 11.0625 258.875 C10.88428525 263.40165476 10.58806848 266.38920396 8.5625 270.375 C8.39568891 273.29152174 8.39568891 273.29152174 8.5625 276.375 C8.78498804 281.93720096 8.78498804 281.93720096 7.59375 284.28125 C6.04980281 287.41593065 6.19901963 290.40740144 6.0625 293.875 C5.88428525 298.40165476 5.58806848 301.38920396 3.5625 305.375 C3.39568891 308.29152174 3.39568891 308.29152174 3.5625 311.375 C3.78498804 316.93720096 3.78498804 316.93720096 2.59375 319.28125 C1.04980281 322.41593065 1.19901963 325.40740144 1.0625 328.875 C0.88428525 333.40165476 0.58806848 336.38920396 -1.4375 340.375 C-1.60431109 343.29152174 -1.60431109 343.29152174 -1.4375 346.375 C-1.21501196 351.93720096 -1.21501196 351.93720096 -2.40625 354.28125 C-3.95019719 357.41593065 -3.80098037 360.40740144 -3.9375 363.875 C-4.11571475 368.40165476 -4.41193152 371.38920396 -6.4375 375.375 C-6.60431109 378.29152174 -6.60431109 378.29152174 -6.4375 381.375 C-6.21501196 386.93720096 -6.21501196 386.93720096 -7.40625 389.28125 C-8.95019719 392.41593065 -8.80098037 395.40740144 -8.9375 398.875 C-9.11493135 403.38175638 -9.3686417 406.41718412 -11.4375 410.375 C-11.60413878 412.28724824 -11.70277284 414.20608588 -11.75 416.125 C-12.1626235 422.18172349 -13.82788308 425.61930293 -17.4375 430.375 C-18.05625 431.40625 -18.675 432.4375 -19.3125 433.5 C-21.48291858 436.43644867 -23.692356 438.50140414 -26.50390625 440.79296875 C-29.26772315 443.05427349 -31.89469398 445.46460108 -34.54296875 447.859375 C-36.42632785 449.36606228 -38.24602953 450.38373619 -40.4375 451.375 C-40.4375 452.035 -40.4375 452.695 -40.4375 453.375 C-41.90625 454.3828125 -41.90625 454.3828125 -43.9375 455.5 C-48.12796802 457.99503131 -51.20625134 461.02032611 -54.5625 464.52734375 C-56.9489336 466.8789752 -59.63695452 468.5485573 -62.4375 470.375 C-63.54176135 471.43699298 -64.62489471 472.52132784 -65.6875 473.625 C-66.595 474.5325 -67.5025 475.44 -68.4375 476.375 C-69.0975 476.375 -69.7575 476.375 -70.4375 476.375 C-70.4375 477.035 -70.4375 477.695 -70.4375 478.375 C-72.01171875 479.48828125 -72.01171875 479.48828125 -74.125 480.6875 C-76.85668462 482.31200625 -79.12699814 483.87729983 -81.3125 486.1875 C-82.01375 486.909375 -82.715 487.63125 -83.4375 488.375 C-84.0975 488.375 -84.7575 488.375 -85.4375 488.375 C-85.7675 489.365 -86.0975 490.355 -86.4375 491.375 C-88.41071053 492.7476682 -90.41293152 494.07927617 -92.4375 495.375 C-93.015 495.9525 -93.5925 496.53 -94.1875 497.125 C-94.6 497.5375 -95.0125 497.95 -95.4375 498.375 C-96.0975 498.375 -96.7575 498.375 -97.4375 498.375 C-97.7675 499.365 -98.0975 500.355 -98.4375 501.375 C-100.546875 503.0234375 -100.546875 503.0234375 -103.1875 504.75 C-106.18757903 506.76862461 -108.94972541 508.68235276 -111.4375 511.3125 C-112.0975 511.993125 -112.7575 512.67375 -113.4375 513.375 C-114.0975 513.375 -114.7575 513.375 -115.4375 513.375 C-115.4375 514.035 -115.4375 514.695 -115.4375 515.375 C-117.046875 516.8125 -117.046875 516.8125 -119.1875 518.375 C-119.88359375 518.890625 -120.5796875 519.40625 -121.296875 519.9375 C-123.4375 521.375 -123.4375 521.375 -125.640625 522.375 C-127.78965079 523.30615167 -127.78965079 523.30615167 -128.4375 526.375 C-130.546875 528.0234375 -130.546875 528.0234375 -133.1875 529.75 C-136.18757903 531.76862461 -138.94972541 533.68235276 -141.4375 536.3125 C-142.4275 537.3334375 -142.4275 537.3334375 -143.4375 538.375 C-144.0975 538.375 -144.7575 538.375 -145.4375 538.375 C-145.4375 539.035 -145.4375 539.695 -145.4375 540.375 C-147.046875 541.8125 -147.046875 541.8125 -149.1875 543.375 C-149.88359375 543.890625 -150.5796875 544.40625 -151.296875 544.9375 C-153.28851621 546.27495249 -155.26777923 547.35855423 -157.4375 548.375 C-157.4375 549.035 -157.4375 549.695 -157.4375 550.375 C-158.90625 551.3828125 -158.90625 551.3828125 -160.9375 552.5 C-165.12796802 554.99503131 -168.20625134 558.02032611 -171.5625 561.52734375 C-173.9489336 563.8789752 -176.63695452 565.5485573 -179.4375 567.375 C-180.54176135 568.43699298 -181.62489471 569.52132784 -182.6875 570.625 C-183.595 571.5325 -184.5025 572.44 -185.4375 573.375 C-186.0975 573.375 -186.7575 573.375 -187.4375 573.375 C-187.4375 574.035 -187.4375 574.695 -187.4375 575.375 C-188.90625 576.3828125 -188.90625 576.3828125 -190.9375 577.5 C-195.12796802 579.99503131 -198.20625134 583.02032611 -201.5625 586.52734375 C-203.9489336 588.8789752 -206.63695452 590.5485573 -209.4375 592.375 C-210.54176135 593.43699298 -211.62489471 594.52132784 -212.6875 595.625 C-213.595 596.5325 -214.5025 597.44 -215.4375 598.375 C-216.0975 598.375 -216.7575 598.375 -217.4375 598.375 C-217.4375 599.035 -217.4375 599.695 -217.4375 600.375 C-218.90625 601.3828125 -218.90625 601.3828125 -220.9375 602.5 C-225.06726392 604.95888771 -228.13474176 607.89025127 -231.3828125 611.41015625 C-233.85772478 613.77684993 -236.58982306 615.47654871 -239.4375 617.375 C-242.27424254 619.86551044 -245.00811075 622.44515057 -247.75390625 625.03515625 C-250.22202368 627.18712472 -252.64024583 628.70391309 -255.4375 630.375 C-256.79106489 631.6451081 -258.10472157 632.95909496 -259.375 634.3125 C-262.49943685 637.53108184 -265.64264208 639.96009041 -269.4375 642.375 C-270.18 643.1175 -270.9225 643.86 -271.6875 644.625 C-272.265 645.2025 -272.8425 645.78 -273.4375 646.375 C-274.0975 646.375 -274.7575 646.375 -275.4375 646.375 C-275.4375 647.035 -275.4375 647.695 -275.4375 648.375 C-277.75773335 650.43006382 -280.02074735 652.1497283 -282.75 653.625 C-286.12962455 655.82568576 -288.64883987 658.56445934 -291.44921875 661.44921875 C-293.8906652 663.81392032 -296.57597962 665.55403249 -299.4375 667.375 C-300.18 668.1175 -300.9225 668.86 -301.6875 669.625 C-302.265 670.2025 -302.8425 670.78 -303.4375 671.375 C-304.0975 671.375 -304.7575 671.375 -305.4375 671.375 C-305.4375 672.035 -305.4375 672.695 -305.4375 673.375 C-307.75773335 675.43006382 -310.02074735 677.1497283 -312.75 678.625 C-316.12962455 680.82568576 -318.64883987 683.56445934 -321.44921875 686.44921875 C-323.8906652 688.81392032 -326.57597962 690.55403249 -329.4375 692.375 C-330.18 693.1175 -330.9225 693.86 -331.6875 694.625 C-332.265 695.2025 -332.8425 695.78 -333.4375 696.375 C-334.0975 696.375 -334.7575 696.375 -335.4375 696.375 C-335.4375 697.035 -335.4375 697.695 -335.4375 698.375 C-337.77737488 700.44746061 -340.07489011 702.17461033 -342.8125 703.6875 C-345.92004506 705.68520754 -348.18880924 708.10043656 -350.74609375 710.74609375 C-352.77935435 712.70422232 -355.0119204 713.94452998 -357.4375 715.375 C-358.5213502 716.41571189 -359.58282943 717.48005231 -360.625 718.5625 C-362.0171875 719.9546875 -362.0171875 719.9546875 -363.4375 721.375 C-364.0975 721.375 -364.7575 721.375 -365.4375 721.375 C-365.4375 722.035 -365.4375 722.695 -365.4375 723.375 C-366.90625 724.3828125 -366.90625 724.3828125 -368.9375 725.5 C-373.12796802 727.99503131 -376.20625134 731.02032611 -379.5625 734.52734375 C-381.9489336 736.8789752 -384.63695452 738.5485573 -387.4375 740.375 C-388.54176135 741.43699298 -389.62489471 742.52132784 -390.6875 743.625 C-392.04875 744.98625 -392.04875 744.98625 -393.4375 746.375 C-394.0975 746.375 -394.7575 746.375 -395.4375 746.375 C-395.4375 747.035 -395.4375 747.695 -395.4375 748.375 C-396.90625 749.3828125 -396.90625 749.3828125 -398.9375 750.5 C-403.12796802 752.99503131 -406.20625134 756.02032611 -409.5625 759.52734375 C-411.9489336 761.8789752 -414.63695452 763.5485573 -417.4375 765.375 C-418.54176135 766.43699298 -419.62489471 767.52132784 -420.6875 768.625 C-422.04875 769.98625 -422.04875 769.98625 -423.4375 771.375 C-424.0975 771.375 -424.7575 771.375 -425.4375 771.375 C-425.4375 772.035 -425.4375 772.695 -425.4375 773.375 C-426.90625 774.3828125 -426.90625 774.3828125 -428.9375 775.5 C-433.12796802 777.99503131 -436.20625134 781.02032611 -439.5625 784.52734375 C-441.9489336 786.8789752 -444.63695452 788.5485573 -447.4375 790.375 C-448.54176135 791.43699298 -449.62489471 792.52132784 -450.6875 793.625 C-452.04875 794.98625 -452.04875 794.98625 -453.4375 796.375 C-454.0975 796.375 -454.7575 796.375 -455.4375 796.375 C-455.4375 797.035 -455.4375 797.695 -455.4375 798.375 C-457.01171875 799.48828125 -457.01171875 799.48828125 -459.125 800.6875 C-461.85668462 802.31200625 -464.12699814 803.87729983 -466.3125 806.1875 C-467.01375 806.909375 -467.715 807.63125 -468.4375 808.375 C-469.0975 808.375 -469.7575 808.375 -470.4375 808.375 C-470.7675 809.365 -471.0975 810.355 -471.4375 811.375 C-473.41071053 812.7476682 -475.41293152 814.07927617 -477.4375 815.375 C-478.015 815.9525 -478.5925 816.53 -479.1875 817.125 C-479.80625 817.74375 -479.80625 817.74375 -480.4375 818.375 C-481.0975 818.375 -481.7575 818.375 -482.4375 818.375 C-482.7675 819.365 -483.0975 820.355 -483.4375 821.375 C-485.546875 823.0234375 -485.546875 823.0234375 -488.1875 824.75 C-491.18757903 826.76862461 -493.94972541 828.68235276 -496.4375 831.3125 C-497.0975 831.993125 -497.7575 832.67375 -498.4375 833.375 C-499.0975 833.375 -499.7575 833.375 -500.4375 833.375 C-500.4375 834.035 -500.4375 834.695 -500.4375 835.375 C-502.046875 836.8125 -502.046875 836.8125 -504.1875 838.375 C-504.88359375 838.890625 -505.5796875 839.40625 -506.296875 839.9375 C-508.4375 841.375 -508.4375 841.375 -510.640625 842.375 C-512.78965079 843.30615167 -512.78965079 843.30615167 -513.4375 846.375 C-515.546875 848.0234375 -515.546875 848.0234375 -518.1875 849.75 C-521.18757903 851.76862461 -523.94972541 853.68235276 -526.4375 856.3125 C-527.0975 856.993125 -527.7575 857.67375 -528.4375 858.375 C-529.0975 858.375 -529.7575 858.375 -530.4375 858.375 C-530.4375 859.035 -530.4375 859.695 -530.4375 860.375 C-532.046875 861.8125 -532.046875 861.8125 -534.1875 863.375 C-534.88359375 863.890625 -535.5796875 864.40625 -536.296875 864.9375 C-538.28851621 866.27495249 -540.26777923 867.35855423 -542.4375 868.375 C-542.4375 869.035 -542.4375 869.695 -542.4375 870.375 C-544.046875 871.5234375 -544.046875 871.5234375 -546.1875 872.75 C-548.80463419 874.29816389 -550.57256671 875.51757042 -552.6875 877.75 C-553.265 878.28625 -553.8425 878.8225 -554.4375 879.375 C-556.5 879.1875 -556.5 879.1875 -558.4375 878.375 C-559.4275 878.045 -560.4175 877.715 -561.4375 877.375 C-563.625 875.4375 -563.625 875.4375 -565.4375 873.375 C-565.4375 872.715 -565.4375 872.055 -565.4375 871.375 C-566.4275 871.045 -567.4175 870.715 -568.4375 870.375 C-568.4375 869.715 -568.4375 869.055 -568.4375 868.375 C-569.0975 868.375 -569.7575 868.375 -570.4375 868.375 C-570.4375 867.715 -570.4375 867.055 -570.4375 866.375 C-571.4275 866.045 -572.4175 865.715 -573.4375 865.375 C-573.4375 864.715 -573.4375 864.055 -573.4375 863.375 C-574.0975 863.375 -574.7575 863.375 -575.4375 863.375 C-575.4375 862.715 -575.4375 862.055 -575.4375 861.375 C-576.4275 861.045 -577.4175 860.715 -578.4375 860.375 C-578.4375 859.715 -578.4375 859.055 -578.4375 858.375 C-579.0975 858.375 -579.7575 858.375 -580.4375 858.375 C-580.4375 857.715 -580.4375 857.055 -580.4375 856.375 C-581.4275 856.045 -582.4175 855.715 -583.4375 855.375 C-583.4375 854.715 -583.4375 854.055 -583.4375 853.375 C-584.0975 853.375 -584.7575 853.375 -585.4375 853.375 C-585.4375 852.715 -585.4375 852.055 -585.4375 851.375 C-586.4275 851.045 -587.4175 850.715 -588.4375 850.375 C-588.4375 849.715 -588.4375 849.055 -588.4375 848.375 C-589.0975 848.375 -589.7575 848.375 -590.4375 848.375 C-590.4375 847.715 -590.4375 847.055 -590.4375 846.375 C-591.4275 846.045 -592.4175 845.715 -593.4375 845.375 C-593.4375 844.715 -593.4375 844.055 -593.4375 843.375 C-594.0975 843.375 -594.7575 843.375 -595.4375 843.375 C-595.4375 842.715 -595.4375 842.055 -595.4375 841.375 C-596.4275 841.045 -597.4175 840.715 -598.4375 840.375 C-598.4375 839.715 -598.4375 839.055 -598.4375 838.375 C-599.0975 838.375 -599.7575 838.375 -600.4375 838.375 C-600.4375 837.715 -600.4375 837.055 -600.4375 836.375 C-601.4275 836.045 -602.4175 835.715 -603.4375 835.375 C-603.4375 834.715 -603.4375 834.055 -603.4375 833.375 C-604.0975 833.375 -604.7575 833.375 -605.4375 833.375 C-605.4375 832.715 -605.4375 832.055 -605.4375 831.375 C-606.4275 831.045 -607.4175 830.715 -608.4375 830.375 C-608.4375 829.715 -608.4375 829.055 -608.4375 828.375 C-609.0975 828.375 -609.7575 828.375 -610.4375 828.375 C-610.4375 827.715 -610.4375 827.055 -610.4375 826.375 C-611.4275 826.045 -612.4175 825.715 -613.4375 825.375 C-613.4375 824.715 -613.4375 824.055 -613.4375 823.375 C-614.0975 823.375 -614.7575 823.375 -615.4375 823.375 C-615.4375 822.715 -615.4375 822.055 -615.4375 821.375 C-616.4275 821.045 -617.4175 820.715 -618.4375 820.375 C-618.4375 819.715 -618.4375 819.055 -618.4375 818.375 C-619.0975 818.375 -619.7575 818.375 -620.4375 818.375 C-620.4375 817.715 -620.4375 817.055 -620.4375 816.375 C-621.4275 816.045 -622.4175 815.715 -623.4375 815.375 C-623.4375 814.715 -623.4375 814.055 -623.4375 813.375 C-624.0975 813.375 -624.7575 813.375 -625.4375 813.375 C-625.4375 812.715 -625.4375 812.055 -625.4375 811.375 C-626.4275 811.045 -627.4175 810.715 -628.4375 810.375 C-628.4375 809.715 -628.4375 809.055 -628.4375 808.375 C-629.0975 808.375 -629.7575 808.375 -630.4375 808.375 C-630.4375 807.715 -630.4375 807.055 -630.4375 806.375 C-631.4275 806.045 -632.4175 805.715 -633.4375 805.375 C-633.4375 804.715 -633.4375 804.055 -633.4375 803.375 C-634.0975 803.375 -634.7575 803.375 -635.4375 803.375 C-635.4375 802.715 -635.4375 802.055 -635.4375 801.375 C-636.4275 801.045 -637.4175 800.715 -638.4375 800.375 C-638.4375 799.715 -638.4375 799.055 -638.4375 798.375 C-639.0975 798.375 -639.7575 798.375 -640.4375 798.375 C-640.4375 797.715 -640.4375 797.055 -640.4375 796.375 C-641.4275 796.045 -642.4175 795.715 -643.4375 795.375 C-643.4375 794.715 -643.4375 794.055 -643.4375 793.375 C-644.0975 793.375 -644.7575 793.375 -645.4375 793.375 C-645.4375 792.715 -645.4375 792.055 -645.4375 791.375 C-646.4275 791.045 -647.4175 790.715 -648.4375 790.375 C-648.4375 789.715 -648.4375 789.055 -648.4375 788.375 C-649.0975 788.375 -649.7575 788.375 -650.4375 788.375 C-650.4375 787.715 -650.4375 787.055 -650.4375 786.375 C-651.4275 786.045 -652.4175 785.715 -653.4375 785.375 C-653.4375 784.715 -653.4375 784.055 -653.4375 783.375 C-654.0975 783.375 -654.7575 783.375 -655.4375 783.375 C-655.4375 782.715 -655.4375 782.055 -655.4375 781.375 C-656.4275 781.045 -657.4175 780.715 -658.4375 780.375 C-658.4375 779.715 -658.4375 779.055 -658.4375 778.375 C-659.0975 778.375 -659.7575 778.375 -660.4375 778.375 C-660.4375 777.715 -660.4375 777.055 -660.4375 776.375 C-661.4275 776.045 -662.4175 775.715 -663.4375 775.375 C-663.4375 774.715 -663.4375 774.055 -663.4375 773.375 C-664.0975 773.375 -664.7575 773.375 -665.4375 773.375 C-665.4375 772.715 -665.4375 772.055 -665.4375 771.375 C-666.4275 771.045 -667.4175 770.715 -668.4375 770.375 C-668.4375 769.715 -668.4375 769.055 -668.4375 768.375 C-669.4275 768.045 -670.4175 767.715 -671.4375 767.375 C-671.06640592 762.31632017 -668.38408599 759.76447774 -664.93204594 756.38014793 C-664.05748058 755.4991089 -664.05748058 755.4991089 -663.16524723 754.60027111 C-661.19728596 752.62267878 -659.21530992 750.65975367 -657.23316956 748.69638062 C-655.80981926 747.27200266 -654.38734921 745.84674464 -652.96568817 744.42068064 C-649.04721877 740.49518732 -645.11635214 736.58231438 -641.18342102 732.67131758 C-636.9477749 728.45495518 -632.72365849 724.22707055 -628.49816895 720.00053406 C-621.17200645 712.67568645 -613.83865435 705.35808962 -606.50030708 698.04545212 C-598.801295 690.37332388 -591.10664448 682.69686283 -583.41770744 675.01463699 C-582.93977679 674.53712643 -582.46184614 674.05961586 -581.96943275 673.56763528 C-579.54228051 671.14256422 -577.11521141 668.71740998 -574.68817782 666.29222019 C-557.49057329 649.10791046 -540.28408913 631.93251762 -523.07202148 614.76269531 C-506.35574315 598.08737583 -489.64222932 581.40929574 -472.93334961 564.7265625 C-472.16122215 563.9556488 -472.16122215 563.9556488 -471.37349616 563.16916108 C-459.62549076 551.43959025 -447.87837143 539.70913234 -436.13194942 527.97797585 C-435.13604838 526.98337499 -434.14014701 525.98877445 -433.14424531 524.99417425 C-432.1523231 524.00354679 -431.16040101 523.01291922 -430.16847903 522.02229154 C-429.43426117 521.28903234 -429.43426117 521.28903234 -428.68521064 520.54095982 C-426.23080803 518.0897554 -423.77642385 515.63853254 -421.32207488 513.18727441 C-409.76989652 501.6496958 -398.21518318 490.11466818 -386.65605234 478.58405484 C-379.40807534 471.35392229 -372.16164968 464.12223737 -364.91641159 456.88936017 C-359.92488771 451.90657382 -354.93129688 446.92587172 -349.93609611 441.94677158 C-346.91411231 438.93348466 -343.89419461 435.91813407 -340.87490153 432.9021513 C-339.48615405 431.5157699 -338.0965401 430.13025584 -336.70600218 428.74567024 C-334.82462825 426.87212862 -332.94632801 424.99555951 -331.0687952 423.11816978 C-330.5208359 422.57398089 -329.9728766 422.02979199 -329.40831247 421.46911252 C-326.58233979 418.63621386 -324.24030982 415.98061964 -322.4375 412.375 C-321.7775 411.385 -321.1175 410.395 -320.4375 409.375 C-319.75886945 407.3790278 -319.09108081 405.37931449 -318.4375 403.375 C-318.1075 403.045 -317.7775 402.715 -317.4375 402.375 C-317.20222227 400.02512738 -317.02363583 397.66943961 -316.875 395.3125 C-316.79121094 394.02214844 -316.70742188 392.73179687 -316.62109375 391.40234375 C-316.56050781 390.40332031 -316.49992188 389.40429688 -316.4375 388.375 C-317.0975 388.045 -317.7575 387.715 -318.4375 387.375 C-317.7775 387.375 -317.1175 387.375 -316.4375 387.375 C-317.36897963 385.28896795 -318.3079275 383.20626967 -319.25 381.125 C-320.03310547 379.38476562 -320.03310547 379.38476562 -320.83203125 377.609375 C-322.18700412 374.87964862 -323.53702143 372.72846935 -325.4375 370.375 C-326.0975 369.385 -326.7575 368.395 -327.4375 367.375 C-331.72936235 364.55140635 -336.3150562 362.39733963 -341 360.3125 C-341.76441406 359.97089844 -342.52882813 359.62929688 -343.31640625 359.27734375 C-349.65215375 356.58202575 -355.83313149 356.66520496 -362.3436309 359.08282631 C-374.47672805 364.50556779 -383.35809723 372.1623559 -392.57936096 381.55482483 C-394.01538846 382.9873552 -395.45317624 384.41812274 -396.89254516 385.8472957 C-400.8057521 389.74276656 -404.69382749 393.66247722 -408.57794702 397.58692205 C-412.78464432 401.8283789 -417.01465797 406.0464748 -421.24179077 410.26754761 C-428.55016006 417.5717354 -435.843966 424.89021972 -443.12750435 432.21916389 C-450.76015259 439.89927117 -458.40112637 447.57093814 -466.05320549 455.23168755 C-466.53032656 455.70935853 -467.00744762 456.18702951 -467.4990269 456.67917537 C-469.92247241 459.10532783 -472.34606596 461.53133234 -474.76971649 463.95727997 C-491.90249293 481.106826 -509.01667733 498.27481471 -526.11987305 515.45385742 C-542.72761816 532.13516677 -559.34381226 548.80798616 -575.97143555 565.46948242 C-576.48464889 565.98374798 -576.99786224 566.49801353 -577.5266275 567.02786289 C-582.68089084 572.19267508 -587.83532556 577.35731621 -592.98988581 582.52183208 C-603.48879271 593.04102457 -613.98655607 603.56135794 -624.48362732 614.0823822 C-624.96618707 614.56604027 -625.44874682 615.04969834 -625.94592959 615.54801271 C-658.12896496 647.80455958 -690.285254 680.08776635 -722.4375 712.375 C-728.2890625 710.6328125 -728.2890625 710.6328125 -729.625 708.3125 C-729.893125 707.673125 -730.16125 707.03375 -730.4375 706.375 C-731.4275 706.045 -732.4175 705.715 -733.4375 705.375 C-733.4375 704.715 -733.4375 704.055 -733.4375 703.375 C-734.0975 703.375 -734.7575 703.375 -735.4375 703.375 C-735.4375 702.715 -735.4375 702.055 -735.4375 701.375 C-736.4275 701.045 -737.4175 700.715 -738.4375 700.375 C-738.4375 699.715 -738.4375 699.055 -738.4375 698.375 C-739.0975 698.375 -739.7575 698.375 -740.4375 698.375 C-740.4375 697.715 -740.4375 697.055 -740.4375 696.375 C-741.4275 696.045 -742.4175 695.715 -743.4375 695.375 C-743.4375 694.715 -743.4375 694.055 -743.4375 693.375 C-744.0975 693.375 -744.7575 693.375 -745.4375 693.375 C-745.4375 692.715 -745.4375 692.055 -745.4375 691.375 C-746.4275 691.045 -747.4175 690.715 -748.4375 690.375 C-748.4375 689.715 -748.4375 689.055 -748.4375 688.375 C-749.0975 688.375 -749.7575 688.375 -750.4375 688.375 C-750.4375 687.715 -750.4375 687.055 -750.4375 686.375 C-751.4275 686.045 -752.4175 685.715 -753.4375 685.375 C-753.4375 684.715 -753.4375 684.055 -753.4375 683.375 C-754.0975 683.375 -754.7575 683.375 -755.4375 683.375 C-755.4375 682.715 -755.4375 682.055 -755.4375 681.375 C-756.4275 681.045 -757.4175 680.715 -758.4375 680.375 C-758.4375 679.715 -758.4375 679.055 -758.4375 678.375 C-759.0975 678.375 -759.7575 678.375 -760.4375 678.375 C-760.4375 677.715 -760.4375 677.055 -760.4375 676.375 C-761.4275 676.045 -762.4175 675.715 -763.4375 675.375 C-763.4375 674.715 -763.4375 674.055 -763.4375 673.375 C-764.0975 673.375 -764.7575 673.375 -765.4375 673.375 C-765.4375 672.715 -765.4375 672.055 -765.4375 671.375 C-766.4275 671.045 -767.4175 670.715 -768.4375 670.375 C-768.4375 669.715 -768.4375 669.055 -768.4375 668.375 C-769.0975 668.375 -769.7575 668.375 -770.4375 668.375 C-770.4375 667.715 -770.4375 667.055 -770.4375 666.375 C-771.4275 666.045 -772.4175 665.715 -773.4375 665.375 C-773.4375 664.715 -773.4375 664.055 -773.4375 663.375 C-774.0975 663.375 -774.7575 663.375 -775.4375 663.375 C-775.4375 662.715 -775.4375 662.055 -775.4375 661.375 C-776.4275 661.045 -777.4175 660.715 -778.4375 660.375 C-778.4375 659.715 -778.4375 659.055 -778.4375 658.375 C-779.0975 658.375 -779.7575 658.375 -780.4375 658.375 C-780.4375 657.715 -780.4375 657.055 -780.4375 656.375 C-781.4275 656.045 -782.4175 655.715 -783.4375 655.375 C-783.4375 654.715 -783.4375 654.055 -783.4375 653.375 C-784.0975 653.375 -784.7575 653.375 -785.4375 653.375 C-785.4375 652.715 -785.4375 652.055 -785.4375 651.375 C-786.4275 651.045 -787.4175 650.715 -788.4375 650.375 C-788.4375 649.715 -788.4375 649.055 -788.4375 648.375 C-789.0975 648.375 -789.7575 648.375 -790.4375 648.375 C-790.4375 647.715 -790.4375 647.055 -790.4375 646.375 C-791.4275 646.045 -792.4175 645.715 -793.4375 645.375 C-793.4375 644.715 -793.4375 644.055 -793.4375 643.375 C-794.0975 643.375 -794.7575 643.375 -795.4375 643.375 C-795.4375 642.715 -795.4375 642.055 -795.4375 641.375 C-796.4275 641.045 -797.4175 640.715 -798.4375 640.375 C-798.4375 639.715 -798.4375 639.055 -798.4375 638.375 C-799.0975 638.375 -799.7575 638.375 -800.4375 638.375 C-800.4375 637.715 -800.4375 637.055 -800.4375 636.375 C-801.4275 636.045 -802.4175 635.715 -803.4375 635.375 C-803.4375 634.715 -803.4375 634.055 -803.4375 633.375 C-804.0975 633.375 -804.7575 633.375 -805.4375 633.375 C-805.4375 632.715 -805.4375 632.055 -805.4375 631.375 C-806.4275 631.045 -807.4175 630.715 -808.4375 630.375 C-808.4375 629.715 -808.4375 629.055 -808.4375 628.375 C-809.0975 628.375 -809.7575 628.375 -810.4375 628.375 C-810.4375 627.715 -810.4375 627.055 -810.4375 626.375 C-811.4275 626.045 -812.4175 625.715 -813.4375 625.375 C-813.4375 624.715 -813.4375 624.055 -813.4375 623.375 C-814.0975 623.375 -814.7575 623.375 -815.4375 623.375 C-815.4375 622.715 -815.4375 622.055 -815.4375 621.375 C-816.4275 621.045 -817.4175 620.715 -818.4375 620.375 C-818.4375 619.715 -818.4375 619.055 -818.4375 618.375 C-819.0975 618.375 -819.7575 618.375 -820.4375 618.375 C-820.4375 617.715 -820.4375 617.055 -820.4375 616.375 C-821.4275 616.045 -822.4175 615.715 -823.4375 615.375 C-823.4375 614.715 -823.4375 614.055 -823.4375 613.375 C-824.0975 613.375 -824.7575 613.375 -825.4375 613.375 C-825.4375 612.715 -825.4375 612.055 -825.4375 611.375 C-826.4275 611.045 -827.4175 610.715 -828.4375 610.375 C-828.4375 609.715 -828.4375 609.055 -828.4375 608.375 C-829.0975 608.375 -829.7575 608.375 -830.4375 608.375 C-830.4375 607.715 -830.4375 607.055 -830.4375 606.375 C-831.4275 606.045 -832.4175 605.715 -833.4375 605.375 C-833.4375 604.715 -833.4375 604.055 -833.4375 603.375 C-834.0975 603.375 -834.7575 603.375 -835.4375 603.375 C-835.4375 602.715 -835.4375 602.055 -835.4375 601.375 C-836.4275 601.045 -837.4175 600.715 -838.4375 600.375 C-838.9325 598.89 -838.9325 598.89 -839.4375 597.375 C-838.07421875 595.5078125 -838.07421875 595.5078125 -836.125 593.5 C-833.35447384 590.5108919 -831.88096894 588.1898822 -830.4375 584.375 C-827.62584039 581.19338518 -825.18591309 579.24920655 -821.4375 577.375 C-821.1075 576.385 -820.7775 575.395 -820.4375 574.375 C-817.93326833 570.76102136 -814.98183102 567.5526268 -812.05859375 564.27734375 C-810.27880649 562.26421887 -810.27880649 562.26421887 -808.4375 559.375 C-807.7775 558.715 -807.1175 558.055 -806.4375 557.375 C-806.0353125 556.4778125 -806.0353125 556.4778125 -805.625 555.5625 C-803.46358751 551.58095068 -800.73653432 548.80801144 -796.4375 547.375 C-796.1075 546.385 -795.7775 545.395 -795.4375 544.375 C-794.18870909 540.62862727 -792.27954893 539.08486061 -789.4375 536.375 C-787.06942631 534.07458556 -785.27985203 532.13852804 -783.4375 529.375 C-782.921875 528.88 -782.40625 528.385 -781.875 527.875 C-780.18233279 526.32297562 -780.18233279 526.32297562 -779.4375 523.375 C-775.11931818 518.60227273 -775.11931818 518.60227273 -771.4375 517.375 C-771.1075 516.385 -770.7775 515.395 -770.4375 514.375 C-769.3555656 512.84364669 -768.22481002 511.3462785 -767.0625 509.875 C-766.45664062 509.1015625 -765.85078125 508.328125 -765.2265625 507.53125 C-763.4375 505.375 -763.4375 505.375 -761.81640625 503.79296875 C-759.72914096 501.64657414 -758.69305488 499.06547475 -757.4375 496.375 C-756.7775 496.375 -756.1175 496.375 -755.4375 496.375 C-755.210625 495.818125 -754.98375 495.26125 -754.75 494.6875 C-753.06199964 491.71340412 -750.97073483 489.65491135 -748.4375 487.375 C-747.7775 487.375 -747.1175 487.375 -746.4375 487.375 C-746.34210938 486.79878906 -746.24671875 486.22257812 -746.1484375 485.62890625 C-745.28177225 482.88129168 -743.99930529 481.43317921 -742.0625 479.3125 C-741.45664062 478.64089844 -740.85078125 477.96929687 -740.2265625 477.27734375 C-739.11892002 476.0995667 -737.98611685 474.94428258 -736.81640625 473.828125 C-734.751718 471.65230622 -733.69633727 469.07250843 -732.4375 466.375 C-731.7775 466.375 -731.1175 466.375 -730.4375 466.375 C-730.210625 465.818125 -729.98375 465.26125 -729.75 464.6875 C-728.06199964 461.71340412 -725.97073483 459.65491135 -723.4375 457.375 C-722.7775 457.375 -722.1175 457.375 -721.4375 457.375 C-721.34210938 456.79878906 -721.24671875 456.22257812 -721.1484375 455.62890625 C-720.28177225 452.88129168 -718.99930529 451.43317921 -717.0625 449.3125 C-716.45664062 448.64089844 -715.85078125 447.96929687 -715.2265625 447.27734375 C-714.10756642 446.08749421 -712.96237697 444.92116786 -711.78125 443.79296875 C-710.23834637 442.32877052 -710.23834637 442.32877052 -709.3125 439.75 C-706.57892179 434.82955923 -702.70813897 431.02165567 -698.4375 427.375 C-697.7775 427.375 -697.1175 427.375 -696.4375 427.375 C-696.1075 426.385 -695.7775 425.395 -695.4375 424.375 C-693.32661122 420.15322243 -690.43877197 417.23642411 -687.05859375 414.0234375 C-685.10902062 412.04098001 -683.71510503 409.98473961 -682.5625 407.453125 C-681.1851669 404.90888468 -679.48818499 403.16060642 -677.4375 401.125 C-676.385625 400.06539063 -676.385625 400.06539063 -675.3125 398.984375 C-673.4375 397.375 -673.4375 397.375 -671.4375 397.375 C-671.35371094 396.63507813 -671.26992188 395.89515625 -671.18359375 395.1328125 C-670.28179591 391.79946552 -669.01751924 390.57176277 -666.5 388.25 C-664.07599068 385.98876444 -662.29122076 384.15558114 -660.4375 381.375 C-659.98375 380.941875 -659.53 380.50875 -659.0625 380.0625 C-657.22730099 378.2698981 -657.22730099 378.2698981 -655.5 375.3125 C-653.45656036 372.40214657 -652.5300129 371.76129889 -649.4375 370.375 C-649.1075 369.385 -648.7775 368.395 -648.4375 367.375 C-646.94511984 363.74105432 -644.75808434 361.51861257 -641.9375 358.8125 C-639.40940847 356.3788015 -637.39077066 354.30490599 -635.4375 351.375 C-634.98375 350.941875 -634.53 350.50875 -634.0625 350.0625 C-632.22730099 348.2698981 -632.22730099 348.2698981 -630.5 345.3125 C-628.45656036 342.40214657 -627.5300129 341.76129889 -624.4375 340.375 C-624.1075 339.385 -623.7775 338.395 -623.4375 337.375 C-621.94511984 333.74105432 -619.75808434 331.51861257 -616.9375 328.8125 C-614.40940847 326.3788015 -612.39077066 324.30490599 -610.4375 321.375 C-609.98375 320.941875 -609.53 320.50875 -609.0625 320.0625 C-607.22730099 318.2698981 -607.22730099 318.2698981 -605.5 315.3125 C-603.5362372 312.51562571 -602.57625387 311.49598353 -599.4375 310.375 C-599.4375 309.385 -599.4375 308.395 -599.4375 307.375 C-598.4475 307.375 -597.4575 307.375 -596.4375 307.375 C-596.7675 306.385 -597.0975 305.395 -597.4375 304.375 C-596.38949219 303.37919922 -596.38949219 303.37919922 -595.3203125 302.36328125 C-594.41023437 301.48027344 -593.50015625 300.59726562 -592.5625 299.6875 C-591.65757812 298.81738281 -590.75265625 297.94726562 -589.8203125 297.05078125 C-587.51232336 294.45902295 -586.58106943 292.58994048 -585.4375 289.375 C-583.0625 286.8125 -583.0625 286.8125 -580.4375 284.375 C-579.3546875 283.2303125 -579.3546875 283.2303125 -578.25 282.0625 C-576.4375 280.375 -576.4375 280.375 -574.4375 280.375 C-574.4375 279.385 -574.4375 278.395 -574.4375 277.375 C-573.4475 277.375 -572.4575 277.375 -571.4375 277.375 C-571.7675 276.385 -572.0975 275.395 -572.4375 274.375 C-571.75042969 273.72273438 -571.06335938 273.07046875 -570.35546875 272.3984375 C-569.45441406 271.52445312 -568.55335938 270.65046875 -567.625 269.75 C-566.28501953 268.46222656 -566.28501953 268.46222656 -564.91796875 267.1484375 C-562.40479636 264.33843373 -561.07655799 261.742682 -559.4375 258.375 C-557.46484375 256.0390625 -557.46484375 256.0390625 -555.375 254 C-554.68277344 253.31164062 -553.99054688 252.62328125 -553.27734375 251.9140625 C-551.4375 250.375 -551.4375 250.375 -549.4375 250.375 C-549.4375 249.385 -549.4375 248.395 -549.4375 247.375 C-548.4475 247.375 -547.4575 247.375 -546.4375 247.375 C-546.35242188 246.63121094 -546.26734375 245.88742188 -546.1796875 245.12109375 C-545.28680617 241.81743284 -544.08797205 240.69932387 -541.5625 238.4375 C-538.22647771 235.28516633 -536.38769589 232.5539912 -534.4375 228.375 C-531.9375 225.6875 -531.9375 225.6875 -529.4375 223.375 C-528.880625 222.776875 -528.32375 222.17875 -527.75 221.5625 C-526.4375 220.375 -526.4375 220.375 -524.4375 220.375 C-524.4375 219.385 -524.4375 218.395 -524.4375 217.375 C-523.4475 217.375 -522.4575 217.375 -521.4375 217.375 C-521.35242188 216.63121094 -521.26734375 215.88742188 -521.1796875 215.12109375 C-520.28680617 211.81743284 -519.08797205 210.69932387 -516.5625 208.4375 C-513.22647771 205.28516633 -511.38769589 202.5539912 -509.4375 198.375 C-505.22697368 193.63815789 -505.22697368 193.63815789 -501.4375 192.375 C-501.1075 191.385 -500.7775 190.395 -500.4375 189.375 C-499.18870909 185.62862727 -497.27954893 184.08486061 -494.4375 181.375 C-492.06942631 179.07458556 -490.27985203 177.13852804 -488.4375 174.375 C-487.921875 173.88 -487.40625 173.385 -486.875 172.875 C-485.18233279 171.32297562 -485.18233279 171.32297562 -484.4375 168.375 C-480.11931818 163.60227273 -480.11931818 163.60227273 -476.4375 162.375 C-476.1075 161.385 -475.7775 160.395 -475.4375 159.375 C-474.18870909 155.62862727 -472.27954893 154.08486061 -469.4375 151.375 C-467.06942631 149.07458556 -465.27985203 147.13852804 -463.4375 144.375 C-462.921875 143.88 -462.40625 143.385 -461.875 142.875 C-460.18233279 141.32297562 -460.18233279 141.32297562 -459.4375 138.375 C-455.11931818 133.60227273 -455.11931818 133.60227273 -451.4375 132.375 C-451.1075 131.385 -450.7775 130.395 -450.4375 129.375 C-449.3555656 127.84364669 -448.22481002 126.3462785 -447.0625 124.875 C-446.45664062 124.1015625 -445.85078125 123.328125 -445.2265625 122.53125 C-443.4375 120.375 -443.4375 120.375 -441.81640625 118.79296875 C-439.72914096 116.64657414 -438.69305488 114.06547475 -437.4375 111.375 C-436.7775 111.375 -436.1175 111.375 -435.4375 111.375 C-435.0971875 110.5396875 -435.0971875 110.5396875 -434.75 109.6875 C-433.06199964 106.71340412 -430.97073483 104.65491135 -428.4375 102.375 C-427.7775 102.375 -427.1175 102.375 -426.4375 102.375 C-426.29441406 101.51068359 -426.29441406 101.51068359 -426.1484375 100.62890625 C-425.28177225 97.88129168 -423.99930529 96.43317921 -422.0625 94.3125 C-421.45664062 93.64089844 -420.85078125 92.96929687 -420.2265625 92.27734375 C-419.11892002 91.0995667 -417.98611685 89.94428258 -416.81640625 88.828125 C-414.751718 86.65230622 -413.69633727 84.07250843 -412.4375 81.375 C-411.7775 81.375 -411.1175 81.375 -410.4375 81.375 C-410.0971875 80.5396875 -410.0971875 80.5396875 -409.75 79.6875 C-408.06199964 76.71340412 -405.97073483 74.65491135 -403.4375 72.375 C-402.7775 72.375 -402.1175 72.375 -401.4375 72.375 C-401.33308594 71.79105469 -401.22867187 71.20710938 -401.12109375 70.60546875 C-400.33528527 68.04148795 -399.27176088 66.68452143 -397.5 64.6875 C-396.97535156 64.08550781 -396.45070313 63.48351563 -395.91015625 62.86328125 C-393.67671822 60.60614626 -391.46082698 60.08044296 -388.4375 59.375 C-388.4375 58.715 -388.4375 58.055 -388.4375 57.375 C-386.4575 56.385 -386.4575 56.385 -384.4375 55.375 C-384.4375 55.045 -384.4375 54.715 -384.4375 54.375 C-382.4575 54.045 -380.4775 53.715 -378.4375 53.375 C-378.4375 53.045 -378.4375 52.715 -378.4375 52.375 C-377.45007813 52.32601562 -376.46265625 52.27703125 -375.4453125 52.2265625 C-374.16398437 52.15179688 -372.88265625 52.07703125 -371.5625 52 C-369.64824219 51.89558594 -369.64824219 51.89558594 -367.6953125 51.7890625 C-364.35688301 51.70258894 -364.35688301 51.70258894 -362.4375 49.375 C-359.70315038 49.0686141 -357.05470179 48.8636664 -354.3125 48.75 C-353.55839844 48.71132813 -352.80429687 48.67265625 -352.02734375 48.6328125 C-350.16446816 48.53848969 -348.30101745 48.45565338 -346.4375 48.375 C-346.4375 48.045 -346.4375 47.715 -346.4375 47.375 C-345.23351562 47.32601562 -344.02953125 47.27703125 -342.7890625 47.2265625 C-341.21351802 47.15153657 -339.63799834 47.07598867 -338.0625 47 C-337.2684375 46.9690625 -336.474375 46.938125 -335.65625 46.90625 C-331.07082625 46.85683579 -331.07082625 46.85683579 -327.4375 44.375 C-324.70315038 44.0686141 -322.05470179 43.8636664 -319.3125 43.75 C-318.55839844 43.71132813 -317.80429687 43.67265625 -317.02734375 43.6328125 C-315.16446816 43.53848969 -313.30101745 43.45565338 -311.4375 43.375 C-311.4375 43.045 -311.4375 42.715 -311.4375 42.375 C-310.23351562 42.32601562 -309.02953125 42.27703125 -307.7890625 42.2265625 C-306.21351802 42.15153657 -304.63799834 42.07598867 -303.0625 42 C-302.2684375 41.9690625 -301.474375 41.938125 -300.65625 41.90625 C-296.07082625 41.85683579 -296.07082625 41.85683579 -292.4375 39.375 C-289.70315038 39.0686141 -287.05470179 38.8636664 -284.3125 38.75 C-283.55839844 38.71132813 -282.80429687 38.67265625 -282.02734375 38.6328125 C-280.16446816 38.53848969 -278.30101745 38.45565338 -276.4375 38.375 C-276.4375 38.045 -276.4375 37.715 -276.4375 37.375 C-275.23351562 37.32601562 -274.02953125 37.27703125 -272.7890625 37.2265625 C-271.21351802 37.15153657 -269.63799834 37.07598867 -268.0625 37 C-267.2684375 36.9690625 -266.474375 36.938125 -265.65625 36.90625 C-261.07082625 36.85683579 -261.07082625 36.85683579 -257.4375 34.375 C-254.70315038 34.0686141 -252.05470179 33.8636664 -249.3125 33.75 C-248.55839844 33.71132813 -247.80429687 33.67265625 -247.02734375 33.6328125 C-245.16446816 33.53848969 -243.30101745 33.45565338 -241.4375 33.375 C-241.4375 33.045 -241.4375 32.715 -241.4375 32.375 C-239.63152344 32.30152344 -239.63152344 32.30152344 -237.7890625 32.2265625 C-236.21351802 32.15153657 -234.63799834 32.07598867 -233.0625 32 C-232.2684375 31.9690625 -231.474375 31.938125 -230.65625 31.90625 C-226.07082625 31.85683579 -226.07082625 31.85683579 -222.4375 29.375 C-219.70315038 29.0686141 -217.05470179 28.8636664 -214.3125 28.75 C-213.55839844 28.71132813 -212.80429688 28.67265625 -212.02734375 28.6328125 C-210.16446816 28.53848969 -208.30101745 28.45565338 -206.4375 28.375 C-206.4375 28.045 -206.4375 27.715 -206.4375 27.375 C-204.63152344 27.30152344 -204.63152344 27.30152344 -202.7890625 27.2265625 C-201.21351802 27.15153657 -199.63799834 27.07598867 -198.0625 27 C-197.2684375 26.9690625 -196.474375 26.938125 -195.65625 26.90625 C-191.07082625 26.85683579 -191.07082625 26.85683579 -187.4375 24.375 C-184.70315038 24.0686141 -182.05470179 23.8636664 -179.3125 23.75 C-178.55839844 23.71132813 -177.80429688 23.67265625 -177.02734375 23.6328125 C-175.16446816 23.53848969 -173.30101745 23.45565338 -171.4375 23.375 C-171.4375 23.045 -171.4375 22.715 -171.4375 22.375 C-169.63152344 22.30152344 -169.63152344 22.30152344 -167.7890625 22.2265625 C-166.21351802 22.15153657 -164.63799834 22.07598867 -163.0625 22 C-162.2684375 21.9690625 -161.474375 21.938125 -160.65625 21.90625 C-156.07082625 21.85683579 -156.07082625 21.85683579 -152.4375 19.375 C-149.70315038 19.0686141 -147.05470179 18.8636664 -144.3125 18.75 C-143.55839844 18.71132813 -142.80429688 18.67265625 -142.02734375 18.6328125 C-140.16446816 18.53848969 -138.30101745 18.45565338 -136.4375 18.375 C-136.4375 18.045 -136.4375 17.715 -136.4375 17.375 C-134.63152344 17.30152344 -134.63152344 17.30152344 -132.7890625 17.2265625 C-131.21351802 17.15153657 -129.63799834 17.07598867 -128.0625 17 C-127.2684375 16.9690625 -126.474375 16.938125 -125.65625 16.90625 C-121.07082625 16.85683579 -121.07082625 16.85683579 -117.4375 14.375 C-114.70315038 14.0686141 -112.05470179 13.8636664 -109.3125 13.75 C-108.55839844 13.71132812 -107.80429688 13.67265625 -107.02734375 13.6328125 C-105.16446816 13.53848969 -103.30101745 13.45565338 -101.4375 13.375 C-101.4375 13.045 -101.4375 12.715 -101.4375 12.375 C-99.63152344 12.30152344 -99.63152344 12.30152344 -97.7890625 12.2265625 C-96.21351802 12.15153657 -94.63799834 12.07598867 -93.0625 12 C-92.2684375 11.9690625 -91.474375 11.938125 -90.65625 11.90625 C-86.07082625 11.85683579 -86.07082625 11.85683579 -82.4375 9.375 C-78.80134747 9.04981563 -75.2052479 8.91038869 -71.55859375 8.80859375 C-67.02473296 8.82653819 -67.02473296 8.82653819 -63.4375 6.375 C-59.81893194 6.23309537 -56.24373778 6.38135286 -52.625 6.5 C-49.34239676 6.73246696 -49.34239676 6.73246696 -47.4375 4.375 C-43.80134747 4.04981563 -40.2052479 3.91038869 -36.55859375 3.80859375 C-32.02473296 3.82653819 -32.02473296 3.82653819 -28.4375 1.375 C-25.21484375 1.21484375 -25.21484375 1.21484375 -21.375 1.3125 C-19.06303635 1.36648494 -16.75000329 1.39546463 -14.4375 1.375 C-11.69766977 -1.36483023 -3.67825364 0.04068456 0 0 Z " fill="#000100" transform="translate(1238.4375,-0.37499999999999994)"/>
<path d="M0 0 C4.49827668 -0.05001077 8.99639945 -0.08600376 13.49487305 -0.10986328 C15.02029241 -0.11982599 16.54569316 -0.13340109 18.07104492 -0.15087891 C29.30425146 -0.27622483 39.74592051 0.24718737 50.4375 4.0625 C53.61496645 5.18370987 56.72935761 6.19902635 60 7 C61.40365895 7.45573342 62.79988094 7.93504132 64.1875 8.4375 C64.88230469 8.68371094 65.57710937 8.92992187 66.29296875 9.18359375 C68 10 68 10 69 12 C70.84346091 13.01768347 72.72584289 13.96547811 74.625 14.875 C84.29305175 19.61107779 84.29305175 19.61107779 88 22 C88.33 22.99 88.66 23.98 89 25 C90.65948148 26.01187895 92.32580562 27.0126546 94 28 C94 28.66 94 29.32 94 30 C94.5775 30.28875 95.155 30.5775 95.75 30.875 C96.4925 31.24625 97.235 31.6175 98 32 C98.639375 32.2475 99.27875 32.495 99.9375 32.75 C102.35807637 34.21701598 103.77612162 36.08783909 105.515625 38.2890625 C107.79651521 40.91808858 110.43949486 43.08402 113.08203125 45.33984375 C115.51302096 47.44406092 117.75767976 49.69707651 120 52 C120.825 52.825 121.65 53.65 122.5 54.5 C181.66666667 113.66666667 240.83333333 172.83333333 300 232 C300.845625 232.804375 301.69125 233.60875 302.5625 234.4375 C305.10896867 237.11455681 306.95406672 239.93110008 309 243 C309.9075 243.9075 310.815 244.815 311.75 245.75 C312.4925 246.4925 313.235 247.235 314 248 C314 248.66 314 249.32 314 250 C314.66 250 315.32 250 316 250 C328.59632724 263.161334 338.61164433 283.91673564 341 302 C341.49922974 303.34553955 341.49922974 303.34553955 342.00854492 304.71826172 C343.14355624 308.47517434 343.30586168 311.93521416 343.30078125 315.8203125 C343.30506638 316.5602243 343.3093515 317.30013611 343.31376648 318.06246948 C343.31948616 319.62399275 343.32002753 321.18554264 343.31567383 322.74707031 C343.31253672 325.09748738 343.33592124 327.44661526 343.36132812 329.796875 C343.39667322 338.61635194 342.74010895 346.52152441 340 355 C339.34 355 338.68 355 338 355 C338.061875 356.175625 338.12375 357.35125 338.1875 358.5625 C338.21144173 363.03960301 336.9879056 366.0241888 335 370 C334.34 370 333.68 370 333 370 C332.87625 370.721875 332.7525 371.44375 332.625 372.1875 C332.0095069 374.95721894 331.11555626 377.3970354 330 380 C329.34 380 328.68 380 328 380 C327.896875 380.70125 327.79375 381.4025 327.6875 382.125 C326.90640997 385.39137647 325.57941257 388.0471852 324 391 C323.34 391 322.68 391 322 391 C321.6596875 391.804375 321.6596875 391.804375 321.3125 392.625 C319.94274002 395.10361329 318.32215573 397.16500385 316.46484375 399.296875 C315.44220563 400.48586226 314.45757004 401.70813311 313.50390625 402.953125 C308.9532195 408.67149397 303.81063537 412.29992562 297 415 C293.25 415.25 293.25 415.25 290 415 C288.824375 415.37125 287.64875 415.7425 286.4375 416.125 C282.38931568 417.15544692 280.82402495 416.46452019 277 415 C276.071875 415.061875 275.14375 415.12375 274.1875 415.1875 C269.35470475 414.90321793 266.03759802 412.53339484 262 410 C261.14921875 409.484375 260.2984375 408.96875 259.421875 408.4375 C254.68665062 405.45937146 254.68665062 405.45937146 253 404 C253 403.01 253 402.02 253 401 C252.360625 400.731875 251.72125 400.46375 251.0625 400.1875 C249 399 249 399 248 396 C247.34 395.67 246.68 395.34 246 395 C244 394 244 394 243 391 C242.34 390.67 241.68 390.34 241 390 C239 389 239 389 238 386 C237.34 385.67 236.68 385.34 236 385 C234 384 234 384 233 381 C232.34 380.67 231.68 380.34 231 380 C229 379 229 379 228 376 C227.34 375.67 226.68 375.34 226 375 C224 374 224 374 223 371 C222.34 370.67 221.68 370.34 221 370 C219 369 219 369 218 366 C217.34 365.67 216.68 365.34 216 365 C214 364 214 364 213 361 C212.34 360.67 211.68 360.34 211 360 C209 359 209 359 208 356 C207.34 355.67 206.68 355.34 206 355 C204 354 204 354 203 351 C202.34 350.67 201.68 350.34 201 350 C199 349 199 349 198 346 C197.34 345.67 196.68 345.34 196 345 C194 344 194 344 193 341 C192.34 340.67 191.68 340.34 191 340 C189 339 189 339 188 336 C187.34 335.67 186.68 335.34 186 335 C184 334 184 334 183 331 C182.34 330.67 181.68 330.34 181 330 C179 329 179 329 178 326 C177.34 325.67 176.68 325.34 176 325 C174 324 174 324 173 321 C172.34 320.67 171.68 320.34 171 320 C169 319 169 319 168 316 C167.34 315.67 166.68 315.34 166 315 C164 314 164 314 163 311 C162.34 310.67 161.68 310.34 161 310 C159 309 159 309 158 306 C157.34 305.67 156.68 305.34 156 305 C154 304 154 304 153 301 C152.34 300.67 151.68 300.34 151 300 C149 299 149 299 148 296 C147.34 295.67 146.68 295.34 146 295 C144 294 144 294 143 291 C142.34 290.67 141.68 290.34 141 290 C139 289 139 289 138 286 C137.34 285.67 136.68 285.34 136 285 C134 284 134 284 133 281 C132.34 280.67 131.68 280.34 131 280 C129 279 129 279 128 276 C127.34 275.67 126.68 275.34 126 275 C124 274 124 274 123 271 C122.34 270.67 121.68 270.34 121 270 C119 269 119 269 118 266 C117.34 265.67 116.68 265.34 116 265 C114 264 114 264 113 261 C112.34 260.67 111.68 260.34 111 260 C109 259 109 259 108 256 C107.34 255.67 106.68 255.34 106 255 C104 254 104 254 103 251 C102.34 250.67 101.68 250.34 101 250 C99 249 99 249 98 246 C97.34 245.67 96.68 245.34 96 245 C94 244 94 244 93 241 C92.34 240.67 91.68 240.34 91 240 C89 239 89 239 88 236 C87.34 235.67 86.68 235.34 86 235 C84 234 84 234 83 231 C82.34 230.67 81.68 230.34 81 230 C79 229 79 229 78 226 C77.34 225.67 76.68 225.34 76 225 C74 224 74 224 73 221 C72.34 220.67 71.68 220.34 71 220 C69 219 69 219 68 216 C67.34 215.67 66.68 215.34 66 215 C64 214 64 214 63 211 C62.34 210.67 61.68 210.34 61 210 C59 209 59 209 58 206 C57.34 205.67 56.68 205.34 56 205 C54 204 54 204 53 201 C52.34 200.67 51.68 200.34 51 200 C49 199 49 199 48 196 C47.34 195.67 46.68 195.34 46 195 C44 194 44 194 43 191 C42.34 190.67 41.68 190.34 41 190 C39 189 39 189 38 186 C37.34 185.67 36.68 185.34 36 185 C34 184 34 184 33 181 C32.34 180.67 31.68 180.34 31 180 C29 179 29 179 28 176 C27.34 175.67 26.68 175.34 26 175 C24 174 24 174 23 171 C22.34 170.67 21.68 170.34 21 170 C19 169 19 169 18 166 C17.34 165.67 16.68 165.34 16 165 C14 164 14 164 13 161 C12.34 160.67 11.68 160.34 11 160 C9 159 9 159 8 156 C7.34 155.67 6.68 155.34 6 155 C4 154 4 154 3 151 C2.34 150.67 1.68 150.34 1 150 C-1 149 -1 149 -2 146 C-2.66 145.67 -3.32 145.34 -4 145 C-6 144 -6 144 -7 141 C-7.66 140.67 -8.32 140.34 -9 140 C-11 139 -11 139 -12 136 C-12.66 135.67 -13.32 135.34 -14 135 C-16 134 -16 134 -17 131 C-17.66 130.67 -18.32 130.34 -19 130 C-21 129 -21 129 -22 126 C-22.99 125.505 -22.99 125.505 -24 125 C-26 124 -26 124 -27 121 C-27.99 120.505 -27.99 120.505 -29 120 C-31 119 -31 119 -32 116 C-32.99 115.505 -32.99 115.505 -34 115 C-36 114 -36 114 -37 111 C-37.99 110.505 -37.99 110.505 -39 110 C-41 109 -41 109 -42 106 C-42.66 105.67 -43.32 105.34 -44 105 C-46 104 -46 104 -47 101 C-47.66 100.67 -48.32 100.34 -49 100 C-51 99 -51 99 -52 96 C-52.66 95.67 -53.32 95.34 -54 95 C-56 94 -56 94 -57 91 C-57.66 90.67 -58.32 90.34 -59 90 C-61 89 -61 89 -62 86 C-62.66 86 -63.32 86 -64 86 C-64.33 85.01 -64.66 84.02 -65 83 C-65.46019531 82.5771875 -65.92039063 82.154375 -66.39453125 81.71875 C-71.19401309 76.58061859 -73.32654784 67.03863572 -73.375 60.1875 C-73.27616615 58.45664061 -73.15261406 56.72694855 -73 55 C-72.97808594 54.22011719 -72.95617187 53.44023438 -72.93359375 52.63671875 C-72.44880018 43.58202602 -67.27566225 36.27566225 -61 30 C-59.68 30 -58.36 30 -57 30 C-57 29.01 -57 28.02 -57 27 C-56.01 27 -55.02 27 -54 27 C-53.79375 26.4225 -53.5875 25.845 -53.375 25.25 C-51.50830178 22.19540291 -48.9858093 20.90583572 -46 19 C-45.67 18.34 -45.34 17.68 -45 17 C-43.109375 16.03515625 -43.109375 16.03515625 -40.75 15.0625 C-37.30937818 13.59805812 -34.19325308 11.95143243 -31 10 C-27.40884315 8.43462394 -23.72361951 7.21234124 -20 6 C-20 5.67 -20 5.34 -20 5 C-18.72125 4.87625 -17.4425 4.7525 -16.125 4.625 C-12.65209064 4.30957601 -12.65209064 4.30957601 -10 2 C-7.6171875 1.5859375 -7.6171875 1.5859375 -4.875 1.375 C-3.96492188 1.30023437 -3.05484375 1.22546875 -2.1171875 1.1484375 C-1.06917969 1.07496094 -1.06917969 1.07496094 0 1 C0 0.67 0 0.34 0 0 Z " fill="#000100" transform="translate(284,652)"/>
<path d="M0 0 C0.70253906 0.07863281 1.40507813 0.15726563 2.12890625 0.23828125 C10.11543505 1.45905821 17.07206224 6.07508137 24 10 C24 10.66 24 11.32 24 12 C25.08667969 12.11794922 25.08667969 12.11794922 26.1953125 12.23828125 C29.6855797 13.18619505 31.26813182 14.70139728 33.875 17.1875 C36.75869091 19.89603339 39.62405643 22.55918945 42.6875 25.0625 C45.92489319 27.80476247 48.62804118 30.89196353 51.375 34.1171875 C53.46490747 36.53866683 55.70900065 38.76929011 58 41 C83 66 108 91 133 116 C133.74765625 116.7425 134.4953125 117.485 135.265625 118.25 C138.29805294 121.2997561 141.29346474 124.37679731 144.25 127.5 C144.79140625 128.05558594 145.3328125 128.61117188 145.890625 129.18359375 C148.85393351 132.33210904 150.69748719 134.49592038 151 139 C151.99 139.33 152.98 139.66 154 140 C162.32727938 152.00107911 164.07449738 168.92092398 163 183 C162.38376433 185.01610963 161.72451469 187.0202215 161 189 C160.87625 190.0725 160.7525 191.145 160.625 192.25 C158.84252821 202.94483075 153.14693677 212.98148558 146 221 C145.2884375 221.88171875 145.2884375 221.88171875 144.5625 222.78125 C141.39423343 226.67557766 138.34261118 229.37633908 134 232 C132.948125 232.70125 131.89625 233.4025 130.8125 234.125 C126.82457263 236.78361825 123.56028249 238.53726788 119 240 C114.13313626 241.40959238 114.13313626 241.40959238 110 244 C106.98913486 244.11667207 104.00091842 244.168036 100.98901367 244.17700195 C100.04253967 244.18357315 99.09606567 244.19014435 98.12091064 244.19691467 C94.96992928 244.21671645 91.81899593 244.22833107 88.66796875 244.23828125 C87.05347556 244.24439454 87.05347556 244.24439454 85.40636635 244.25063133 C79.69970515 244.27153032 73.9930682 244.28581031 68.28637695 244.29516602 C62.40999713 244.3061841 56.53400084 244.34051966 50.65775585 244.38033772 C46.12703283 244.40659243 41.59639946 244.41486615 37.06560707 244.41844749 C34.90124256 244.42329769 32.73688164 244.43486655 30.57259178 244.45348549 C8.91334553 244.62809591 8.91334553 244.62809591 -1 240 C-1.86007156 239.61656937 -2.72014313 239.23313873 -3.60627747 238.83808899 C-5.0933888 238.16583181 -6.5764047 237.48442361 -8.0546875 236.79296875 C-10.11919638 235.85322129 -10.11919638 235.85322129 -13 235.625 C-17.00828823 234.78993995 -19.6548873 232.74191172 -22.94921875 230.375 C-25.04736285 228.83662546 -25.04736285 228.83662546 -28 228 C-28 227.34 -28 226.68 -28 226 C-29.11375 225.814375 -29.11375 225.814375 -30.25 225.625 C-32.80141485 225.04513299 -34.7267573 224.26291261 -37 223 C-37 222.01 -37 221.02 -37 220 C-37.78375 219.690625 -38.5675 219.38125 -39.375 219.0625 C-42 218 -42 218 -44 217 C-44 216.34 -44 215.68 -44 215 C-44.86625 214.62875 -44.86625 214.62875 -45.75 214.25 C-48.32939979 212.81700012 -50.06121592 211.21575324 -52 209 C-52 208.34 -52 207.68 -52 207 C-52.66 207 -53.32 207 -54 207 C-55.01866229 205.34467377 -56.01810813 203.67739862 -57 202 C-57.66 201.67 -58.32 201.34 -59 201 C-59 200.01 -59 199.02 -59 198 C-59.66 198 -60.32 198 -61 198 C-63.21225347 195.78774653 -63.28290341 194.92271184 -64 192 C-65.00634746 190.17482417 -65.00634746 190.17482417 -66.25 188.375 C-74 176.35459184 -74 176.35459184 -74 172 C-74.66 171.67 -75.32 171.34 -76 171 C-76 170.34 -76 169.68 -76 169 C-76.268125 168.195625 -76.53625 167.39125 -76.8125 166.5625 C-79.62792682 158.11621955 -81.44868677 150.52200389 -81.37231445 141.59082031 C-81.37596512 140.61534744 -81.37961578 139.63987457 -81.38337708 138.63484192 C-81.39140414 135.44908584 -81.37794201 132.26385094 -81.36328125 129.078125 C-81.36276187 126.84617106 -81.36328258 124.61421667 -81.36479187 122.38226318 C-81.36470251 117.72238263 -81.35434377 113.06267639 -81.33618164 108.40283203 C-81.31344309 102.4389075 -81.31296389 96.47523607 -81.31969929 90.51128006 C-81.323044 85.90956381 -81.31640053 81.30790499 -81.30657005 76.70619965 C-81.30273043 74.50702973 -81.30156469 72.30785342 -81.3031559 70.10868073 C-81.30352781 67.0361975 -81.29087255 63.96403627 -81.2746582 60.89160156 C-81.27713562 59.9896254 -81.27961304 59.08764923 -81.28216553 58.15834045 C-81.2393239 53.05738526 -80.64889432 48.83473602 -79 44 C-78.34 44 -77.68 44 -77 44 C-77 42.02 -77 40.04 -77 38 C-76.01 37.505 -76.01 37.505 -75 37 C-74.67 36.01 -74.34 35.02 -74 34 C-73.34 34 -72.68 34 -72 34 C-71.896875 33.4225 -71.79375 32.845 -71.6875 32.25 C-70.89363153 29.651885 -69.69721412 28.10454551 -68 26 C-67.34 25.01 -66.68 24.02 -66 23 C-64.98522973 22.11404772 -63.94207027 21.25971115 -62.875 20.4375 C-61.92625 19.633125 -60.9775 18.82875 -60 18 C-60 17.34 -60 16.68 -60 16 C-58.36209288 14.95355934 -56.68991979 13.9601817 -55 13 C-52.3880447 11.1318288 -52.3880447 11.1318288 -50 9 C-46.52464277 6.99498622 -42.85725358 6.03849135 -39 5 C-39 4.34 -39 3.68 -39 3 C-33.25 1.875 -33.25 1.875 -31 3 C-31 2.34 -31 1.68 -31 1 C-9.29875134 -1.60542545 -9.29875134 -1.60542545 0 0 Z " fill="#000100" transform="translate(81,1036)"/>
<path d="M0 0 C0 0.66 0 1.32 0 2 C1.32 2.33 2.64 2.66 4 3 C4.495 4.98 4.495 4.98 5 7 C6.32 7.33 7.64 7.66 9 8 C9.495 9.98 9.495 9.98 10 12 C11.32 12.33 12.64 12.66 14 13 C14.495 14.98 14.495 14.98 15 17 C16.98 17.495 16.98 17.495 19 18 C19.33 19.32 19.66 20.64 20 22 C21.32 22.33 22.64 22.66 24 23 C24.33 24.32 24.66 25.64 25 27 C26.32 27.33 27.64 27.66 29 28 C29.33 29.32 29.66 30.64 30 32 C31.32 32.33 32.64 32.66 34 33 C34.33 34.32 34.66 35.64 35 37 C36.32 37.33 37.64 37.66 39 38 C39.33 39.32 39.66 40.64 40 42 C41.32 42.33 42.64 42.66 44 43 C44.33 44.32 44.66 45.64 45 47 C46.32 47.33 47.64 47.66 49 48 C49.33 49.32 49.66 50.64 50 52 C51.32 52.33 52.64 52.66 54 53 C54.33 54.32 54.66 55.64 55 57 C56.32 57.33 57.64 57.66 59 58 C59.33 59.32 59.66 60.64 60 62 C61.32 62.33 62.64 62.66 64 63 C64.33 64.32 64.66 65.64 65 67 C66.32 67.33 67.64 67.66 69 68 C69.33 69.32 69.66 70.64 70 72 C71.32 72.33 72.64 72.66 74 73 C74.33 74.32 74.66 75.64 75 77 C76.32 77.33 77.64 77.66 79 78 C79.33 79.32 79.66 80.64 80 82 C81.32 82.33 82.64 82.66 84 83 C84.33 84.32 84.66 85.64 85 87 C86.32 87.33 87.64 87.66 89 88 C89.33 89.32 89.66 90.64 90 92 C91.32 92.33 92.64 92.66 94 93 C94.33 94.32 94.66 95.64 95 97 C96.32 97.33 97.64 97.66 99 98 C99.103125 98.639375 99.20625 99.27875 99.3125 99.9375 C99.6528125 100.9584375 99.6528125 100.9584375 100 102 C100.99 102.33 101.98 102.66 103 103 C103.7339325 105.71009159 103.7339325 105.71009159 104 109 C102.53401184 111.34966946 102.53401184 111.34966946 100.25708008 113.63853455 C98.97432945 114.95306107 98.97432945 114.95306107 97.66566467 116.29414368 C96.70063983 117.2471532 95.73524962 118.19979287 94.76953125 119.15209961 C93.76481704 120.16793662 92.76159164 121.18524798 91.75975037 122.20391846 C89.03394762 124.96593132 86.2863428 127.70524367 83.53321838 130.43999171 C81.23753611 132.72451209 78.9529633 135.01997794 76.66838646 137.31559569 C71.27906371 142.7307922 65.87221636 148.12802935 60.45361328 153.51391602 C54.86237334 159.07190945 49.29884756 164.65655328 43.74868679 170.2555446 C38.98359786 175.06093238 34.2031286 179.85061265 29.40968418 184.62771612 C26.54642967 187.48136058 23.68907847 190.34032543 20.84585571 193.21394157 C18.17142343 195.91538079 15.47825585 198.5966174 12.76939583 201.26351929 C11.77847944 202.24545544 10.79431971 203.23426437 9.81756401 204.23028755 C2.3995925 211.78224148 2.3995925 211.78224148 -1.1895752 212.34066963 C-3.14160156 212.07789612 -3.14160156 212.07789612 -6 211 C-6 210.34 -6 209.68 -6 209 C-6.99 208.67 -7.98 208.34 -9 208 C-9 207.34 -9 206.68 -9 206 C-9.66 206 -10.32 206 -11 206 C-11 205.34 -11 204.68 -11 204 C-11.99 203.67 -12.98 203.34 -14 203 C-14 202.34 -14 201.68 -14 201 C-14.66 201 -15.32 201 -16 201 C-16 200.34 -16 199.68 -16 199 C-16.99 198.67 -17.98 198.34 -19 198 C-19 197.34 -19 196.68 -19 196 C-19.66 196 -20.32 196 -21 196 C-21 195.34 -21 194.68 -21 194 C-21.99 193.67 -22.98 193.34 -24 193 C-24 192.34 -24 191.68 -24 191 C-24.66 191 -25.32 191 -26 191 C-26 190.34 -26 189.68 -26 189 C-26.99 188.67 -27.98 188.34 -29 188 C-29 187.34 -29 186.68 -29 186 C-29.66 186 -30.32 186 -31 186 C-31 185.34 -31 184.68 -31 184 C-31.99 183.67 -32.98 183.34 -34 183 C-34 182.34 -34 181.68 -34 181 C-34.66 181 -35.32 181 -36 181 C-36 180.34 -36 179.68 -36 179 C-36.99 178.67 -37.98 178.34 -39 178 C-39 177.34 -39 176.68 -39 176 C-39.66 176 -40.32 176 -41 176 C-41 175.34 -41 174.68 -41 174 C-41.99 173.67 -42.98 173.34 -44 173 C-44 172.34 -44 171.68 -44 171 C-44.66 171 -45.32 171 -46 171 C-46 170.34 -46 169.68 -46 169 C-46.99 168.67 -47.98 168.34 -49 168 C-49 167.34 -49 166.68 -49 166 C-49.66 166 -50.32 166 -51 166 C-51 165.34 -51 164.68 -51 164 C-51.99 163.67 -52.98 163.34 -54 163 C-54 162.34 -54 161.68 -54 161 C-54.66 161 -55.32 161 -56 161 C-56 160.34 -56 159.68 -56 159 C-56.99 158.67 -57.98 158.34 -59 158 C-59 157.34 -59 156.68 -59 156 C-59.66 156 -60.32 156 -61 156 C-61 155.34 -61 154.68 -61 154 C-61.99 153.67 -62.98 153.34 -64 153 C-64 152.34 -64 151.68 -64 151 C-64.66 151 -65.32 151 -66 151 C-66 150.34 -66 149.68 -66 149 C-66.99 148.67 -67.98 148.34 -69 148 C-69 147.34 -69 146.68 -69 146 C-69.66 146 -70.32 146 -71 146 C-71 145.34 -71 144.68 -71 144 C-71.99 143.67 -72.98 143.34 -74 143 C-74 142.34 -74 141.68 -74 141 C-74.66 141 -75.32 141 -76 141 C-76 140.34 -76 139.68 -76 139 C-76.99 138.67 -77.98 138.34 -79 138 C-79 137.34 -79 136.68 -79 136 C-79.66 136 -80.32 136 -81 136 C-81 135.34 -81 134.68 -81 134 C-81.99 133.67 -82.98 133.34 -84 133 C-84 132.34 -84 131.68 -84 131 C-84.66 131 -85.32 131 -86 131 C-86 130.34 -86 129.68 -86 129 C-86.99 128.67 -87.98 128.34 -89 128 C-89 127.34 -89 126.68 -89 126 C-89.66 126 -90.32 126 -91 126 C-91 125.34 -91 124.68 -91 124 C-92.485 123.505 -92.485 123.505 -94 123 C-94 122.34 -94 121.68 -94 121 C-94.66 121 -95.32 121 -96 121 C-96 120.34 -96 119.68 -96 119 C-96.99 118.67 -97.98 118.34 -99 118 C-99 117.34 -99 116.68 -99 116 C-99.66 116 -100.32 116 -101 116 C-101 115.34 -101 114.68 -101 114 C-101.99 113.67 -102.98 113.34 -104 113 C-104 112.34 -104 111.68 -104 111 C-104.66 111 -105.32 111 -106 111 C-106 110.34 -106 109.68 -106 109 C-106.66 109 -107.32 109 -108 109 C-108.495 106.525 -108.495 106.525 -109 104 C-108.01 103.505 -108.01 103.505 -107 103 C-105.6092639 101.37600634 -104.2209148 99.7499145 -102.84393501 98.11424065 C-99.2800529 94.02792287 -95.40884395 90.23473075 -91.58569336 86.39282227 C-90.65650589 85.45545731 -89.72731842 84.51809235 -88.76997375 83.55232239 C-85.71362626 80.47000208 -82.65204452 77.39290994 -79.58984375 74.31640625 C-78.53187572 73.25307197 -77.47391333 72.18973207 -76.4159565 71.12638664 C-72.01806957 66.70692471 -67.6187665 62.2888806 -63.21573544 57.87454319 C-56.91864018 51.56116393 -50.63022908 45.23940616 -44.3534345 38.90584141 C-39.92888771 34.44264799 -35.49484754 29.98903001 -31.05358416 25.54247135 C-28.40415243 22.88938457 -25.75907812 20.23226829 -23.12406731 17.56485176 C-20.19132163 14.59654633 -17.23921013 11.64827147 -14.28491211 8.70141602 C-13.41464386 7.81474243 -12.54437561 6.92806885 -11.6477356 6.01452637 C-10.84177444 5.2168837 -10.03581329 4.41924103 -9.20542908 3.59742737 C-8.16212637 2.54915945 -8.16212637 2.54915945 -7.09774685 1.47971439 C-4.54441969 -0.32135848 -3.05909244 -0.30744503 0 0 Z " fill="#000100" transform="translate(278,897)"/>
<path d="M0 0 C0.66 0.33 1.32 0.66 2 1 C0.68 1.99 -0.64 2.98 -2 4 C-1.34 2.68 -0.68 1.36 0 0 Z " fill="#000100" transform="translate(19,1053)"/>
<path d="M0 0 C0.33 0 0.66 0 1 0 C1 1.98 1 3.96 1 6 C0.67 6 0.34 6 0 6 C0 4.02 0 2.04 0 0 Z " fill="#FBFDFD" transform="translate(1230,391)"/>
<path d="M0 0 C0.33 0 0.66 0 1 0 C1 1.98 1 3.96 1 6 C0.67 6 0.34 6 0 6 C0 4.02 0 2.04 0 0 Z " fill="#FBFDFD" transform="translate(1235,356)"/>
<path d="M0 0 C0.33 0 0.66 0 1 0 C1 1.98 1 3.96 1 6 C0.67 6 0.34 6 0 6 C0 4.02 0 2.04 0 0 Z " fill="#FBFDFD" transform="translate(1240,321)"/>
<path d="M0 0 C0.33 0 0.66 0 1 0 C1 1.98 1 3.96 1 6 C0.67 6 0.34 6 0 6 C0 4.02 0 2.04 0 0 Z " fill="#FBFDFD" transform="translate(1245,286)"/>
<path d="M0 0 C0.33 0 0.66 0 1 0 C1 1.98 1 3.96 1 6 C0.67 6 0.34 6 0 6 C0 4.02 0 2.04 0 0 Z " fill="#FBFDFD" transform="translate(1250,251)"/>
<path d="M0 0 C0.33 0 0.66 0 1 0 C1 1.98 1 3.96 1 6 C0.67 6 0.34 6 0 6 C0 4.02 0 2.04 0 0 Z " fill="#FBFDFD" transform="translate(1255,216)"/>
<path d="M0 0 C0.33 0 0.66 0 1 0 C1 1.98 1 3.96 1 6 C0.67 6 0.34 6 0 6 C0 4.02 0 2.04 0 0 Z " fill="#FBFDFD" transform="translate(1260,181)"/>
<path d="M0 0 C0.33 0 0.66 0 1 0 C1 1.98 1 3.96 1 6 C0.67 6 0.34 6 0 6 C0 4.02 0 2.04 0 0 Z " fill="#FBFDFD" transform="translate(1265,146)"/>
<path d="M0 0 C0.33 0 0.66 0 1 0 C1 1.98 1 3.96 1 6 C0.67 6 0.34 6 0 6 C0 4.02 0 2.04 0 0 Z " fill="#FBFDFD" transform="translate(1270,111)"/>
<path d="M0 0 C0.33 0 0.66 0 1 0 C1 1.98 1 3.96 1 6 C0.67 6 0.34 6 0 6 C0 4.02 0 2.04 0 0 Z " fill="#FBFDFD" transform="translate(1275,76)"/>
<path d="M0 0 C0.66 0.33 1.32 0.66 2 1 C1.01 1.66 0.02 2.32 -1 3 C-0.67 2.01 -0.34 1.02 0 0 Z " fill="#000100" transform="translate(579,378)"/>
<path d="M0 0 C0.66 0.33 1.32 0.66 2 1 C1.01 1.66 0.02 2.32 -1 3 C-0.67 2.01 -0.34 1.02 0 0 Z " fill="#000100" transform="translate(604,348)"/>
<path d="M0 0 C0.66 0.33 1.32 0.66 2 1 C1.01 1.66 0.02 2.32 -1 3 C-0.67 2.01 -0.34 1.02 0 0 Z " fill="#000100" transform="translate(629,318)"/>
<path d="M0 0 C4 1 4 1 4 1 Z " fill="#FBFDFD" transform="translate(557,1067)"/>
<path d="M0 0 C3 1 3 1 3 1 Z " fill="#000100" transform="translate(67,1034)"/>
<path d="" fill="#FBFDFD" transform="translate(0,0)"/>
<path d="M0 0 C2 1 2 1 2 1 Z " fill="#FBFDFD" transform="translate(69,1272)"/>
<path d="" fill="#FBFDFD" transform="translate(0,0)"/>
<path d="" fill="#FBFDFD" transform="translate(0,0)"/>
<path d="" fill="#FBFDFD" transform="translate(0,0)"/>
<path d="" fill="#FBFDFD" transform="translate(0,0)"/>
<path d="" fill="#FBFDFD" transform="translate(0,0)"/>
<path d="" fill="#FBFDFD" transform="translate(0,0)"/>
<path d="" fill="#FBFDFD" transform="translate(0,0)"/>
<path d="" fill="#FBFDFD" transform="translate(0,0)"/>
<path d="" fill="#FBFDFD" transform="translate(0,0)"/>
<path d="" fill="#FBFDFD" transform="translate(0,0)"/>
<path d="" fill="#000100" transform="translate(0,0)"/>
<path d="" fill="#FBFDFD" transform="translate(0,0)"/>
<path d="" fill="#000100" transform="translate(0,0)"/>
<path d="" fill="#000100" transform="translate(0,0)"/>
<path d="" fill="#000100" transform="translate(0,0)"/>
<path d="" fill="#000100" transform="translate(0,0)"/>
<path d="" fill="#000100" transform="translate(0,0)"/>
<path d="" fill="#FBFDFD" transform="translate(0,0)"/>
<path d="" fill="#FBFDFD" transform="translate(0,0)"/>
<path d="" fill="#FBFDFD" transform="translate(0,0)"/>
<path d="" fill="#000100" transform="translate(0,0)"/>
<path d="" fill="#000100" transform="translate(0,0)"/>
<path d="" fill="#000100" transform="translate(0,0)"/>
<path d="" fill="#000100" transform="translate(0,0)"/>
<path d="" fill="#000100" transform="translate(0,0)"/>
<path d="" fill="#000100" transform="translate(0,0)"/>
<path d="" fill="#000100" transform="translate(0,0)"/>
<path d="" fill="#000100" transform="translate(0,0)"/>
<path d="" fill="#000100" transform="translate(0,0)"/>
<path d="" fill="#000100" transform="translate(0,0)"/>
<path d="" fill="#000100" transform="translate(0,0)"/>
<path d="" fill="#000100" transform="translate(0,0)"/>
<path d="" fill="#000100" transform="translate(0,0)"/>
<path d="" fill="#FBFDFD" transform="translate(0,0)"/>
<path d="" fill="#000100" transform="translate(0,0)"/>
<path d="" fill="#000100" transform="translate(0,0)"/>
<path d="" fill="#FBFDFD" transform="translate(0,0)"/>
<path d="" fill="#000100" transform="translate(0,0)"/>
<path d="" fill="#FBFDFD" transform="translate(0,0)"/>
<path d="" fill="#FBFDFD" transform="translate(0,0)"/>
<path d="" fill="#FBFDFD" transform="translate(0,0)"/>
<path d="" fill="#FBFDFD" transform="translate(0,0)"/>
<path d="" fill="#FBFDFD" transform="translate(0,0)"/>
<path d="" fill="#FBFDFD" transform="translate(0,0)"/>
<path d="" fill="#FBFDFD" transform="translate(0,0)"/>
<path d="" fill="#FBFDFD" transform="translate(0,0)"/>
<path d="" fill="#000100" transform="translate(0,0)"/>
<path d="" fill="#000100" transform="translate(0,0)"/>
<path d="" fill="#000100" transform="translate(0,0)"/>
<path d="" fill="#FBFDFD" transform="translate(0,0)"/>
<path d="" fill="#000100" transform="translate(0,0)"/>
<path d="" fill="#000100" transform="translate(0,0)"/>
<path d="" fill="#000100" transform="translate(0,0)"/>
<path d="" fill="#FBFDFD" transform="translate(0,0)"/>
<path d="" fill="#000100" transform="translate(0,0)"/>
<path d="" fill="#000100" transform="translate(0,0)"/>
<path d="" fill="#000100" transform="translate(0,0)"/>
</svg>
