<?xml version="1.0" encoding="UTF-8"?>
<!-- Generator: visioncortex VTracer 0.6.2 -->
<svg version="1.1" xmlns="http://www.w3.org/2000/svg" width="1280" height="1280">
<path d="M0 0 C0.27217432 5.71566076 -0.09214507 9.89236107 -2.078125 15.22265625 C-3.30186942 18.90944557 -4.14094403 22.65165553 -5 26.4375 C-6.89907458 34.7189018 -9.09471944 42.68412481 -12.1875 50.609375 C-13.28514022 53.83897026 -14.09754607 57.13405976 -14.9375 60.4375 C-16.21637199 65.43395214 -17.75238592 70.04170497 -19.99609375 74.6875 C-21.72183564 78.66274981 -22.82762996 82.83598348 -24.0625 86.984375 C-25.14920911 90.47995596 -26.47118335 93.67648555 -28 97 C-29.61241045 100.62792352 -31.10259555 104.22170191 -32.3125 108 C-35.61999706 118.11198319 -39.75828836 127.78020494 -44.62890625 137.23046875 C-46.30031178 140.60661268 -47.65053349 144.05933456 -49.0078125 147.5703125 C-50.75095517 151.83895322 -52.89341123 155.90207656 -55 160 C-55.83541471 161.66562435 -56.66875195 163.33229232 -57.5 165 C-58.12455078 166.24523437 -58.12455078 166.24523437 -58.76171875 167.515625 C-59.56439678 169.12604528 -60.3591834 170.74043267 -61.14453125 172.359375 C-63.59589231 177.37687656 -66.2577856 182.23470235 -69.0625 187.0625 C-72.07556799 192.24921615 -74.70567533 197.45538204 -77 203 C-77.66 203 -78.32 203 -79 203 C-79.08636719 203.53109375 -79.17273437 204.0621875 -79.26171875 204.609375 C-80.26604478 207.86147834 -81.98227045 210.38411181 -83.8125 213.25 C-86.84139751 218.04958559 -89.58268338 222.86320218 -92 228 C-92.66 228 -93.32 228 -94 228 C-94.16544312 228.84933105 -94.16544312 228.84933105 -94.33422852 229.71582031 C-95.6252122 234.1450258 -98.4790349 237.88384235 -100.9375 241.75 C-101.48857422 242.63816406 -102.03964844 243.52632812 -102.60742188 244.44140625 C-103.13787109 245.28058594 -103.66832031 246.11976563 -104.21484375 246.984375 C-104.70073975 247.75491211 -105.18663574 248.52544922 -105.68725586 249.31933594 C-106.12046143 249.87395508 -106.55366699 250.42857422 -107 251 C-107.66 251 -108.32 251 -109 251 C-109.27312012 251.73718262 -109.54624023 252.47436523 -109.82763672 253.23388672 C-110.93238436 255.84046538 -112.15395056 257.93518083 -113.7578125 260.2578125 C-114.56738403 261.43670044 -114.56738403 261.43670044 -115.39331055 262.6394043 C-115.96476807 263.45965088 -116.53622559 264.27989746 -117.125 265.125 C-117.70741455 265.96651611 -118.2898291 266.80803223 -118.88989258 267.67504883 C-120.58721083 270.12098341 -122.2926085 272.56109069 -124 275 C-124.67313232 275.96897217 -124.67313232 275.96897217 -125.35986328 276.95751953 C-130.14240956 283.83037337 -130.14240956 283.83037337 -132 286 C-132.66 286 -133.32 286 -134 286 C-134.2475 286.53625 -134.495 287.0725 -134.75 287.625 C-136.30652537 290.5823982 -138.03435673 293.29724051 -140 296 C-140.66 296 -141.32 296 -142 296 C-142.2475 296.71542969 -142.495 297.43085938 -142.75 298.16796875 C-144.13863595 301.31409706 -145.84463946 303.63810963 -148 306.3125 C-148.70125 307.19550781 -149.4025 308.07851563 -150.125 308.98828125 C-150.74375 309.65214844 -151.3625 310.31601562 -152 311 C-152.66 311 -153.32 311 -154 311 C-154.268125 311.57234375 -154.53625 312.1446875 -154.8125 312.734375 C-156.04132636 315.07884634 -157.42522176 317.12404938 -159 319.25 C-159.7734375 320.30960937 -159.7734375 320.30960937 -160.5625 321.390625 C-161.036875 321.92171875 -161.51125 322.4528125 -162 323 C-162.66 323 -163.32 323 -164 323 C-164.268125 323.58265625 -164.53625 324.1653125 -164.8125 324.765625 C-166.01480991 327.02786601 -167.33825913 328.80576318 -169 330.75 C-169.515625 331.36359375 -170.03125 331.9771875 -170.5625 332.609375 C-172 334 -172 334 -174 334 C-174.2475 334.556875 -174.495 335.11375 -174.75 335.6875 C-176.22924818 338.42410913 -177.93467439 340.67650869 -180 343 C-180.66 343 -181.32 343 -182 343 C-182.21140625 343.54011719 -182.4228125 344.08023437 -182.640625 344.63671875 C-184.50259724 347.8737682 -187.08112517 350.24748659 -189.75 352.8125 C-194.68738235 357.6368015 -194.68738235 357.6368015 -199.25 362.8125 C-201.90821545 366.03529218 -204.94195734 368.67062146 -208.1171875 371.375 C-210.53866683 373.46490747 -212.76929011 375.70900065 -215 378 C-380 543 -380 543 -777.6875 940.5625 C-779.71171046 942.69612724 -780.90335323 944.30823065 -782 947 C-781.01 947.33 -780.02 947.66 -779 948 C-779 948.66 -779 949.32 -779 950 C-778.34 950 -777.68 950 -777 950 C-777 950.66 -777 951.32 -777 952 C-776.01 952.33 -775.02 952.66 -774 953 C-774 953.66 -774 954.32 -774 955 C-773.34 955 -772.68 955 -772 955 C-772 955.66 -772 956.32 -772 957 C-771.01 957.33 -770.02 957.66 -769 958 C-769 958.66 -769 959.32 -769 960 C-768.34 960 -767.68 960 -767 960 C-767 960.66 -767 961.32 -767 962 C-766.01 962.33 -765.02 962.66 -764 963 C-764 963.66 -764 964.32 -764 965 C-763.34 965 -762.68 965 -762 965 C-762 965.66 -762 966.32 -762 967 C-761.01 967.33 -760.02 967.66 -759 968 C-759 968.66 -759 969.32 -759 970 C-758.34 970 -757.68 970 -757 970 C-757 970.66 -757 971.32 -757 972 C-756.01 972.33 -755.02 972.66 -754 973 C-754 973.66 -754 974.32 -754 975 C-753.34 975 -752.68 975 -752 975 C-752 975.66 -752 976.32 -752 977 C-751.01 977.33 -750.02 977.66 -749 978 C-749 978.66 -749 979.32 -749 980 C-748.34 980 -747.68 980 -747 980 C-747 980.66 -747 981.32 -747 982 C-746.01 982.33 -745.02 982.66 -744 983 C-744 983.66 -744 984.32 -744 985 C-743.34 985 -742.68 985 -742 985 C-742 985.66 -742 986.32 -742 987 C-741.01 987.33 -740.02 987.66 -739 988 C-739 988.66 -739 989.32 -739 990 C-738.34 990 -737.68 990 -737 990 C-737 990.66 -737 991.32 -737 992 C-736.01 992.33 -735.02 992.66 -734 993 C-734 993.66 -734 994.32 -734 995 C-733.34 995 -732.68 995 -732 995 C-732 995.66 -732 996.32 -732 997 C-731.01 997.33 -730.02 997.66 -729 998 C-729 998.66 -729 999.32 -729 1000 C-728.34 1000 -727.68 1000 -727 1000 C-727 1000.66 -727 1001.32 -727 1002 C-726.01 1002.33 -725.02 1002.66 -724 1003 C-724 1003.66 -724 1004.32 -724 1005 C-723.34 1005 -722.68 1005 -722 1005 C-722 1005.66 -722 1006.32 -722 1007 C-721.01 1007.33 -720.02 1007.66 -719 1008 C-719 1008.66 -719 1009.32 -719 1010 C-718.34 1010 -717.68 1010 -717 1010 C-717 1010.66 -717 1011.32 -717 1012 C-716.01 1012.33 -715.02 1012.66 -714 1013 C-714 1013.66 -714 1014.32 -714 1015 C-713.34 1015 -712.68 1015 -712 1015 C-712 1015.66 -712 1016.32 -712 1017 C-711.01 1017.33 -710.02 1017.66 -709 1018 C-709 1018.66 -709 1019.32 -709 1020 C-708.34 1020 -707.68 1020 -707 1020 C-707 1020.66 -707 1021.32 -707 1022 C-706.01 1022.33 -705.02 1022.66 -704 1023 C-704 1024.65 -704 1026.3 -704 1028 C-704.99 1028.33 -705.98 1028.66 -707 1029 C-707.33 1029.66 -707.66 1030.32 -708 1031 C-708.33 1031.66 -708.66 1032.32 -709 1033 C-709.99 1033.33 -710.98 1033.66 -712 1034 C-712 1034.66 -712 1035.32 -712 1036 C-712.66 1036 -713.32 1036 -714 1036 C-714.33 1036.99 -714.66 1037.98 -715 1039 C-715.66 1039 -716.32 1039 -717 1039 C-717 1039.66 -717 1040.32 -717 1041 C-718.3984375 1042.26171875 -718.3984375 1042.26171875 -720.375 1043.6875 C-721.10976563 1044.21859375 -721.84453125 1044.7496875 -722.6015625 1045.296875 C-723.39304687 1045.85890625 -724.18453125 1046.4209375 -725 1047 C-725.77085937 1047.56203125 -726.54171875 1048.1240625 -727.3359375 1048.703125 C-740.11169975 1057.88182798 -753.31210384 1064.85900392 -768.4453125 1069.203125 C-770.90962999 1069.75480674 -770.90962999 1069.75480674 -772 1071 C-775.33055785 1071.76439033 -778.63581156 1072.40631969 -782 1073 C-782.71220703 1073.12697266 -783.42441406 1073.25394531 -784.15820312 1073.38476562 C-822.7626852 1080.13335363 -860.32599503 1072.10300336 -893 1050 C-895.95145377 1047.7273806 -898.82163829 1045.3921419 -901.66015625 1042.98046875 C-903.94321616 1040.99077737 -903.94321616 1040.99077737 -906.30859375 1039.36328125 C-906.86675781 1038.91339844 -907.42492187 1038.46351562 -908 1038 C-908 1037.34 -908 1036.68 -908 1036 C-908.9590625 1035.5978125 -908.9590625 1035.5978125 -909.9375 1035.1875 C-912 1034 -912 1034 -913 1031 C-913.66 1030.67 -914.32 1030.34 -915 1030 C-917 1029 -917 1029 -918 1026 C-918.66 1025.67 -919.32 1025.34 -920 1025 C-922 1024 -922 1024 -923 1021 C-923.66 1020.67 -924.32 1020.34 -925 1020 C-927 1019 -927 1019 -928 1016 C-928.66 1015.67 -929.32 1015.34 -930 1015 C-932 1014 -932 1014 -933 1011 C-933.66 1010.67 -934.32 1010.34 -935 1010 C-937 1009 -937 1009 -938 1006 C-938.66 1005.67 -939.32 1005.34 -940 1005 C-942 1004 -942 1004 -943 1001 C-943.66 1000.67 -944.32 1000.34 -945 1000 C-947 999 -947 999 -948 996 C-948.66 995.67 -949.32 995.34 -950 995 C-952 994 -952 994 -953 991 C-953.66 990.67 -954.32 990.34 -955 990 C-957 989 -957 989 -958 986 C-958.66 985.67 -959.32 985.34 -960 985 C-962 984 -962 984 -963 981 C-963.66 980.67 -964.32 980.34 -965 980 C-967 979 -967 979 -968 976 C-968.66 975.67 -969.32 975.34 -970 975 C-972 974 -972 974 -973 971 C-973.66 970.67 -974.32 970.34 -975 970 C-977 969 -977 969 -978 966 C-978.66 965.67 -979.32 965.34 -980 965 C-982 964 -982 964 -983 961 C-983.66 960.67 -984.32 960.34 -985 960 C-987 959 -987 959 -988 956 C-988.66 955.67 -989.32 955.34 -990 955 C-992 954 -992 954 -993 951 C-993.66 950.67 -994.32 950.34 -995 950 C-997 949 -997 949 -998 946 C-998.66 945.67 -999.32 945.34 -1000 945 C-1002 944 -1002 944 -1003 941 C-1003.66 940.67 -1004.32 940.34 -1005 940 C-1007 939 -1007 939 -1008 936 C-1008.66 935.67 -1009.32 935.34 -1010 935 C-1012 934 -1012 934 -1013 931 C-1013.66 930.67 -1014.32 930.34 -1015 930 C-1017 929 -1017 929 -1018 926 C-1018.66 925.67 -1019.32 925.34 -1020 925 C-1022 924 -1022 924 -1023 921 C-1023.66 920.67 -1024.32 920.34 -1025 920 C-1027 919 -1027 919 -1028 916 C-1028.66 915.67 -1029.32 915.34 -1030 915 C-1032 914 -1032 914 -1033 911 C-1033.66 911 -1034.32 911 -1035 911 C-1036.5859375 909.42578125 -1036.5859375 909.42578125 -1038.375 907.3125 C-1038.99246094 906.58417969 -1039.60992188 905.85585938 -1040.24609375 905.10546875 C-1040.82488281 904.41066406 -1041.40367187 903.71585938 -1042 903 C-1043.2065625 901.576875 -1043.2065625 901.576875 -1044.4375 900.125 C-1046 898 -1046 898 -1046 896 C-1046.66 896 -1047.32 896 -1048 896 C-1049.7018972 893.57216081 -1051.2742884 891.15417214 -1052.8125 888.625 C-1053.26391357 887.88983154 -1053.71532715 887.15466309 -1054.18041992 886.3972168 C-1061.90273711 873.697892 -1067.38589852 860.60877467 -1070.74438477 846.11669922 C-1071.29719689 842.778153 -1071.29719689 842.778153 -1073 840 C-1080.42154021 802.29640887 -1071.52611462 765.55075702 -1052.125 733.0625 C-1051.073125 731.5465625 -1051.073125 731.5465625 -1050 730 C-1049.34 730 -1048.68 730 -1048 730 C-1047.62875 728.92685547 -1047.62875 728.92685547 -1047.25 727.83203125 C-1045.86136405 724.68590294 -1044.15536054 722.36189037 -1042 719.6875 C-1041.29875 718.80449219 -1040.5975 717.92148437 -1039.875 717.01171875 C-1039.25625 716.34785156 -1038.6375 715.68398438 -1038 715 C-1037.34 715 -1036.68 715 -1036 715 C-1035.67 714.01 -1035.34 713.02 -1035 712 C-1034.34 712 -1033.68 712 -1033 712 C-1033 711.34 -1033 710.68 -1033 710 C-1032.34 710 -1031.68 710 -1031 710 C-1030.67 709.01 -1030.34 708.02 -1030 707 C-1029.34 707 -1028.68 707 -1028 707 C-1028 706.34 -1028 705.68 -1028 705 C-1026.02 705 -1024.04 705 -1022 705 C-1022 705.66 -1022 706.32 -1022 707 C-1021.01 707.33 -1020.02 707.66 -1019 708 C-1019 708.66 -1019 709.32 -1019 710 C-1018.34 710 -1017.68 710 -1017 710 C-1017 710.66 -1017 711.32 -1017 712 C-1016.01 712.33 -1015.02 712.66 -1014 713 C-1014 713.66 -1014 714.32 -1014 715 C-1013.34 715 -1012.68 715 -1012 715 C-1012 715.66 -1012 716.32 -1012 717 C-1011.01 717.33 -1010.02 717.66 -1009 718 C-1009 718.66 -1009 719.32 -1009 720 C-1008.34 720 -1007.68 720 -1007 720 C-1007 720.66 -1007 721.32 -1007 722 C-1006.01 722.33 -1005.02 722.66 -1004 723 C-1004 723.66 -1004 724.32 -1004 725 C-1003.34 725 -1002.68 725 -1002 725 C-1002 725.66 -1002 726.32 -1002 727 C-1001.01 727.33 -1000.02 727.66 -999 728 C-999 728.66 -999 729.32 -999 730 C-998.34 730 -997.68 730 -997 730 C-997 730.66 -997 731.32 -997 732 C-996.01 732.33 -995.02 732.66 -994 733 C-994 733.66 -994 734.32 -994 735 C-993.34 735 -992.68 735 -992 735 C-992 735.66 -992 736.32 -992 737 C-991.01 737.33 -990.02 737.66 -989 738 C-989 738.66 -989 739.32 -989 740 C-988.34 740 -987.68 740 -987 740 C-987 740.66 -987 741.32 -987 742 C-986.01 742.33 -985.02 742.66 -984 743 C-984 743.66 -984 744.32 -984 745 C-983.34 745 -982.68 745 -982 745 C-982 745.66 -982 746.32 -982 747 C-981.01 747.33 -980.02 747.66 -979 748 C-979 748.66 -979 749.32 -979 750 C-978.34 750 -977.68 750 -977 750 C-977 750.66 -977 751.32 -977 752 C-976.01 752.33 -975.02 752.66 -974 753 C-974 753.66 -974 754.32 -974 755 C-973.34 755 -972.68 755 -972 755 C-972 755.66 -972 756.32 -972 757 C-971.01 757.33 -970.02 757.66 -969 758 C-969 758.66 -969 759.32 -969 760 C-968.34 760 -967.68 760 -967 760 C-967 760.66 -967 761.32 -967 762 C-966.01 762.33 -965.02 762.66 -964 763 C-964 763.66 -964 764.32 -964 765 C-963.34 765 -962.68 765 -962 765 C-962 765.66 -962 766.32 -962 767 C-961.01 767.33 -960.02 767.66 -959 768 C-959 768.66 -959 769.32 -959 770 C-958.34 770 -957.68 770 -957 770 C-957 770.66 -957 771.32 -957 772 C-956.01 772.33 -955.02 772.66 -954 773 C-954 773.66 -954 774.32 -954 775 C-953.34 775 -952.68 775 -952 775 C-952 775.66 -952 776.32 -952 777 C-951.01 777.33 -950.02 777.66 -949 778 C-949 778.66 -949 779.32 -949 780 C-948.34 780 -947.68 780 -947 780 C-947 780.66 -947 781.32 -947 782 C-942.96370926 780.64568614 -940.558552 778.93279033 -937.56023139 775.93167621 C-936.69529465 775.07322513 -935.83035792 774.21477405 -934.93921098 773.3303093 C-933.98718738 772.37029982 -933.03530114 771.41015409 -932.0835371 770.44988728 C-931.06262851 769.43089412 -930.04106155 768.41256022 -929.01889607 767.39482787 C-926.1990053 764.58333195 -923.38859346 761.76252174 -920.57957327 758.94017048 C-917.52674139 755.87615482 -914.465222 752.82084095 -911.40477306 749.7644369 C-906.03775043 744.4021008 -900.67633785 739.03420602 -895.31851768 733.66267586 C-887.35116417 725.67499185 -879.37524148 717.69590628 -871.39749056 709.71860838 C-857.97706135 696.29847256 -844.56356651 682.87142604 -831.15390587 669.44053078 C-817.8677519 656.13341234 -804.57829139 642.82960982 -791.28446388 629.53015709 C-790.04524739 628.29041358 -790.04524739 628.29041358 -788.78099621 627.02562474 C-784.58537304 622.82825872 -780.38968517 618.63095737 -776.19396887 614.43368443 C-746.45563198 584.68415093 -716.72388064 554.92804399 -686.99633789 525.16772461 C-679.78973211 517.95318783 -672.58311918 510.7386582 -665.37646484 503.52416992 C-664.48255539 502.62928856 -663.58864594 501.7344072 -662.66764832 500.81240822 C-641.91201697 480.03432439 -621.15375611 459.25886834 -600.39477539 438.48413086 C-599.50574615 437.59442398 -598.61671691 436.70471709 -597.70074738 435.78804939 C-577.40595714 415.47781751 -557.11042514 395.16832707 -536.81395435 374.85977459 C-535.96102587 374.00633631 -535.10809738 373.15289803 -534.22932258 372.27359799 C-526.55685562 364.59654754 -518.88438449 356.91950127 -511.21178923 349.24257907 C-491.2479215 329.2674252 -471.28629373 309.29003874 -451.32858608 289.30873009 C-438.80960163 276.77500929 -426.28898915 264.24291641 -413.76707967 251.71211789 C-405.83752823 243.77679544 -397.90944736 235.84000992 -389.98339769 227.90118976 C-384.69054266 222.6000708 -379.39588606 217.30075583 -374.09976208 212.00290277 C-371.08112382 208.98316637 -368.06329852 205.96262947 -365.04770204 202.9398552 C-362.30267038 200.18831387 -359.55532261 197.43910721 -356.80613473 194.69171873 C-355.81976476 193.70518446 -354.83423322 192.71781097 -353.84966139 191.72948213 C-348.92643305 186.78837554 -343.96506635 181.96211568 -338.66428613 177.42553483 C-335.46056997 174.68140996 -332.39293004 171.78231267 -329.296875 168.91796875 C-327.24380935 167.2035891 -325.44010525 166.05775205 -323 165 C-323 164.34 -323 163.68 -323 163 C-321.13671875 161.30859375 -321.13671875 161.30859375 -318.6875 159.4375 C-317.88699219 158.81746094 -317.08648438 158.19742188 -316.26171875 157.55859375 C-314 156 -314 156 -311 155 C-311 154.34 -311 153.68 -311 153 C-308.74592092 151.04018712 -306.4867439 149.19599236 -304.125 147.375 C-303.47402344 146.859375 -302.82304688 146.34375 -302.15234375 145.8125 C-297.26064401 142 -297.26064401 142 -295 142 C-295 141.34 -295 140.68 -295 140 C-293.5390625 138.7109375 -293.5390625 138.7109375 -291.625 137.375 C-290.68527344 136.70597656 -290.68527344 136.70597656 -289.7265625 136.0234375 C-288 135 -288 135 -286 135 C-286 134.34 -286 133.68 -286 133 C-284.05408519 131.45190296 -282.10859556 130.03083382 -280.0625 128.625 C-278.78503591 127.73324528 -277.50769797 126.84130984 -276.23046875 125.94921875 C-275.54774902 125.47532715 -274.8650293 125.00143555 -274.16162109 124.51318359 C-271.90149234 122.93104241 -269.6622148 121.32246991 -267.42578125 119.70703125 C-266.28967407 118.89081299 -266.28967407 118.89081299 -265.13061523 118.05810547 C-263.64683121 116.99204222 -262.16578631 115.92215441 -260.68774414 114.84814453 C-260.00446045 114.36071777 -259.32117676 113.87329102 -258.6171875 113.37109375 C-258.01503418 112.93724365 -257.41288086 112.50339355 -256.79248047 112.05639648 C-254.87404076 110.92576605 -253.17488728 110.43132571 -251 110 C-251 109.34 -251 108.68 -251 108 C-248.91015625 106.484375 -248.91015625 106.484375 -246.0625 104.75 C-242.41259399 102.49633531 -238.79932973 100.22163055 -235.25 97.8125 C-232.65057317 96.0656481 -230.04225333 94.41011292 -227.3125 92.875 C-223.94825949 91.03657426 -223.94825949 91.03657426 -220.75 88.75 C-218 87 -218 87 -215 87 C-215 86.34 -215 85.68 -215 85 C-213.80503906 84.41992188 -213.80503906 84.41992188 -212.5859375 83.828125 C-206.13761592 80.68876664 -206.13761592 80.68876664 -200 77 C-196.23288943 74.48859296 -192.2537116 72.61769132 -188.19140625 70.62890625 C-185.14578795 69.07441074 -182.23876218 67.39202765 -179.3125 65.625 C-173.1500585 61.9678125 -166.75573031 58.98251792 -160.2578125 55.984375 C-156.29633816 54.15324575 -152.39284818 52.22204898 -148.5 50.25 C-143.39047385 47.67777841 -138.26648144 45.23202891 -133 43 C-131.75669922 42.47019531 -131.75669922 42.47019531 -130.48828125 41.9296875 C-121.48543047 38.13769177 -112.40813279 34.52622252 -103.328125 30.92382812 C-101.89785629 30.35628022 -100.46805863 29.78754135 -99.0390625 29.21679688 C-92.12480466 26.45877625 -85.1893232 24.09032033 -78.0546875 21.96875 C-75.27117776 21.08600011 -72.62626096 20.07141836 -69.9375 18.9375 C-65.36859831 17.03440805 -60.76328024 15.91369267 -55.953125 14.78515625 C-52.32884485 13.82155796 -48.97307224 12.47747338 -45.546875 10.96484375 C-38.69341126 8.36851623 -31.23545069 7.10842162 -24.09179688 5.5 C-20.23047523 4.60865794 -16.65228557 3.57269236 -13 2 C-8.49768492 0.52651506 -4.74034222 -0.23123621 0 0 Z " fill="#000000" transform="translate(1280,12)"/>
<path d="M0 0 C5.54379679 -0.27042911 10.18112988 0.79122208 15.27734375 2.9765625 C18.48286768 4.18150837 21.64185803 4.83416151 25 5.5 C29.23923078 6.34053714 33.01033963 7.36583511 37 9 C40.04152381 9.79934923 43.09686736 10.50797427 46.16015625 11.21875 C48.70002989 11.91747727 50.66363605 12.82951392 53 14 C54.86494148 14.49768233 56.74158017 14.95259714 58.625 15.375 C63.43192469 16.53168442 67.82227888 18.04312194 72.3671875 19.96484375 C75.39111077 21.15377501 78.44702447 22.07836861 81.5625 23 C86.20841961 24.38887397 90.52738643 26.02340809 94.9140625 28.07421875 C96.96156566 28.98294206 98.9911414 29.69676613 101.125 30.375 C111.09631564 33.57695825 120.76626176 37.86817721 130.4140625 41.921875 C132.93346348 42.9722597 135.46315022 43.99258673 138 45 C138 45.66 138 46.32 138 47 C138.84175781 47.0928125 139.68351563 47.185625 140.55078125 47.28125 C144.47634797 48.09926164 147.67834323 49.64231524 151.1875 51.5 C152.59917866 52.22866208 154.0119906 52.95513173 155.42578125 53.6796875 C156.16650879 54.05963867 156.90723633 54.43958984 157.67041016 54.83105469 C161.69663754 56.8513415 165.79031929 58.72658296 169.875 60.625 C175.67994778 63.34038464 181.25069901 66.17419815 186.67578125 69.6015625 C189.42156899 71.25364991 192.24706548 72.65392087 195.125 74.0625 C199.33919138 76.12637322 203.30808451 78.3470318 207.2421875 80.8984375 C209.73438299 82.46021334 212.34576265 83.73923726 215 85 C215 85.66 215 86.32 215 87 C215.99 87.0928125 215.99 87.0928125 217 87.1875 C221.1216675 88.30378495 224.65750502 90.33761566 228 93 C228 93.66 228 94.32 228 95 C228.55171875 95.09925781 229.1034375 95.19851562 229.671875 95.30078125 C236.73506465 97.42210834 243.23222776 102.98986934 248.953125 107.54296875 C251.12953463 109.14760401 251.12953463 109.14760401 254.1796875 110.78125 C258.65094588 113.29395956 262.73936827 116.28836289 266.875 119.3125 C267.67292969 119.89209473 268.47085937 120.47168945 269.29296875 121.06884766 C273.9198033 124.44147685 278.48741801 127.87192768 282.96484375 131.44140625 C286.24591352 133.9541641 289.68873977 136.2313231 293.12890625 138.51953125 C293.74636719 139.00808594 294.36382812 139.49664062 295 140 C295 140.66 295 141.32 295 142 C295.56589844 142.2578125 296.13179688 142.515625 296.71484375 142.78125 C299.24101463 144.12854114 301.32644367 145.71418175 303.5625 147.5 C306.00468505 149.44386398 308.39977272 151.26651515 311 153 C311 153.66 311 154.32 311 155 C311.57234375 155.268125 312.1446875 155.53625 312.734375 155.8125 C315.07884634 157.04132636 317.12404938 158.42522176 319.25 160 C320.30960937 160.7734375 320.30960937 160.7734375 321.390625 161.5625 C321.92171875 162.036875 322.4528125 162.51125 323 163 C323 163.66 323 164.32 323 165 C323.804375 165.3403125 323.804375 165.3403125 324.625 165.6875 C329.83066315 168.56431384 333.83077527 172.83077527 338 177 C339.86560797 178.57679 341.74464014 180.13266229 343.64453125 181.66796875 C344.09183594 182.10753906 344.53914063 182.54710937 345 183 C345 183.66 345 184.32 345 185 C345.57356651 185.24881507 346.14713301 185.49763013 346.73808032 185.75398505 C349.34003261 187.18731245 351.08851086 188.83657346 353.19071484 190.93623924 C354.02362708 191.7633193 354.85653933 192.59039935 355.71469134 193.44254243 C356.6245126 194.35614302 357.53433386 195.2697436 358.47172546 196.21102905 C359.45162135 197.18790489 360.431951 198.16434579 361.41267711 199.14038813 C364.10840933 201.82581301 366.79784661 204.5174664 369.486292 207.21018362 C372.38590476 210.11225859 375.29124192 213.00859297 378.1958313 215.90568542 C383.88563216 221.58272391 389.56992827 227.26524356 395.25218137 232.94983576 C399.8690962 237.56853193 404.48777004 242.18546191 409.10770607 246.80113602 C409.764636 247.45747076 410.42156593 248.1138055 411.09840283 248.79002918 C412.43283876 250.12325339 413.7672759 251.45647639 415.10171423 252.7896982 C427.62091835 265.29802118 440.13358966 277.8128635 452.6443061 290.32967491 C464.09853402 301.78907444 475.56095816 313.24023526 487.02727094 324.68754153 C498.79314107 336.43405753 510.55346641 348.18609821 522.30778247 359.94417632 C528.91015102 366.54846035 535.51472165 373.15050611 542.12509727 379.74677658 C547.75141203 385.36120755 553.37248998 390.98081687 558.98679193 396.6072614 C561.85297684 399.47935569 564.72155187 402.34895277 567.59665489 405.21212196 C570.22630294 407.83098126 572.84898334 410.45661081 575.46618161 413.08791037 C576.86795301 414.49361539 578.27714072 415.89191264 579.68653888 417.28997076 C580.51162788 418.1222663 581.33671688 418.95456185 582.18680859 419.81207848 C582.90421032 420.5294252 583.62161206 421.24677191 584.36075324 421.98585641 C586.07611906 424.09352754 586.840638 425.28954922 587 428 C585.0960634 430.39699583 583.22413332 432.42785719 581.04603577 434.55523682 C580.39352181 435.21202289 579.74100786 435.86880897 579.06872076 436.54549766 C576.86622074 438.75627227 574.64624931 440.94863755 572.42602539 443.14160156 C570.84876487 444.71745259 569.2726028 446.29440371 567.69746399 447.87237549 C563.40701578 452.16426309 559.10128353 456.44051995 554.79273915 460.71423054 C550.29681808 465.17897567 545.81497567 469.65780669 541.33164978 474.13519287 C533.80113104 481.65191773 526.26194379 489.15983656 518.71606445 496.66113281 C510.94296594 504.38835331 503.17512351 512.12079525 495.41430664 519.86035156 C494.93612462 520.33721996 494.45794261 520.81408836 493.96527023 521.30540732 C491.56646235 523.69769012 489.16775761 526.0900763 486.76910412 528.4825139 C466.86203422 548.33772961 446.93673463 568.1745744 427 588 C423.16084236 586.56817657 421.09527102 585.38874233 418.5 582.1875 C415.80276676 578.95315538 413.02069323 575.9412013 410 573 C205 368 205 368 202.96484375 365.9609375 C200.43272561 363.42788189 197.89001823 360.90558307 195.34765625 358.3828125 C193.58586912 356.63027707 191.82415237 354.87767089 190.0625 353.125 C188.74088867 351.81595703 188.74088867 351.81595703 187.39257812 350.48046875 C182.71196995 345.81739095 178.10659867 341.1822975 174 336 C174 335.34 174 334.68 174 334 C173.34 334 172.68 334 172 334 C170.30859375 332.35546875 170.30859375 332.35546875 168.4375 330.1875 C167.81746094 329.47980469 167.19742188 328.77210938 166.55859375 328.04296875 C165 326 165 326 164 323 C163.34 323 162.68 323 162 323 C160.0546875 320.8828125 160.0546875 320.8828125 157.875 318.125 C156.78832031 316.76761719 156.78832031 316.76761719 155.6796875 315.3828125 C154 313 154 313 154 311 C153.34 311 152.68 311 152 311 C150.20460444 308.9102773 148.52938558 306.82157918 146.875 304.625 C146.17310547 303.72007812 146.17310547 303.72007812 145.45703125 302.796875 C142 298.26141126 142 298.26141126 142 296 C141.34 296 140.68 296 140 296 C138.4921875 294.3203125 138.4921875 294.3203125 136.875 292.125 C136.33617187 291.40570313 135.79734375 290.68640625 135.2421875 289.9453125 C134 288 134 288 134 286 C133.34 286 132.68 286 132 286 C130.84594727 284.67749023 130.84594727 284.67749023 129.56640625 282.80859375 C129.08719727 282.11781738 128.60798828 281.42704102 128.11425781 280.71533203 C127.60217773 279.96364746 127.09009766 279.21196289 126.5625 278.4375 C125.48717039 276.88047803 124.41031307 275.32451019 123.33203125 273.76953125 C122.78240723 272.97627441 122.2327832 272.18301758 121.66650391 271.36572266 C120.06645909 269.09434347 118.42761802 266.86012202 116.76171875 264.63671875 C116.25503662 263.9600415 115.74835449 263.28336426 115.22631836 262.58618164 C114.25720438 261.29878415 113.28290888 260.01526759 112.30297852 258.73608398 C109 254.32864718 109 254.32864718 109 251 C108.34 251 107.68 251 107 251 C105.52690889 248.89980986 104.18690365 246.82232271 102.875 244.625 C102.50246094 244.02171875 102.12992187 243.4184375 101.74609375 242.796875 C99 238.27034684 99 238.27034684 99 236 C98.34 236 97.68 236 97 236 C94.95830515 233.09451118 94 231.59857954 94 228 C93.34 228 92.68 228 92 228 C91.63648437 227.32195312 91.27296875 226.64390625 90.8984375 225.9453125 C87.82299314 220.25179757 84.63975191 214.6727806 81.19921875 209.19140625 C80.0562207 207.10273554 79.45038476 205.32610482 79 203 C78.34 203 77.68 203 77 203 C76.5875 202.15179688 76.175 201.30359375 75.75 200.4296875 C71.99368086 192.79966425 68.01243457 185.38851847 63.69921875 178.05859375 C62.22439699 175.40391459 61.08320652 172.82810028 60 170 C59.505 169.175 59.01 168.35 58.5 167.5 C57.03011134 165.05018557 56.05858659 162.64646647 55 160 C54.54625 159.278125 54.0925 158.55625 53.625 157.8125 C52.20302094 155.35138239 51.20421786 153.07843519 50.1875 150.4375 C48.6681157 146.51387925 46.92806548 142.80207285 45 139.0625 C42.62972619 134.41676333 40.76867132 129.7910009 39.0703125 124.8671875 C37.42919522 120.47090982 35.39498799 116.27193092 33.3671875 112.04296875 C32.03129517 109.0696541 31.00027669 106.09956983 30 103 C29.26293834 101.30155356 28.52570247 99.60318003 27.78515625 97.90625 C25.65633861 92.73777732 24.10186773 87.36698477 22.5625 82 C21.61674967 78.78346372 20.51310682 75.83270873 19.0625 72.8125 C16.65826132 67.65531626 15.38369 62.24715471 14.02734375 56.74609375 C13.3049888 54.11210745 12.54960475 51.72764866 11.56640625 49.203125 C9.68729002 44.3360314 8.34798819 39.34815823 7 34.3125 C6.60808472 32.86580933 6.60808472 32.86580933 6.20825195 31.38989258 C4.49544382 25.01268838 2.92153479 18.62634179 1.54296875 12.16796875 C1.20612568 10.03474827 1.20612568 10.03474827 0 9 C-0.07179964 7.48071962 -0.08392007 5.95832518 -0.0625 4.4375 C-0.05347656 3.61121094 -0.04445312 2.78492188 -0.03515625 1.93359375 C-0.02355469 1.29550781 -0.01195312 0.65742188 0 0 Z " fill="#000000" transform="translate(0,12)"/>
<path d="M0 0 C2.58588825 1.2000118 4.16072263 2.42967286 6.16393566 4.45721626 C7.25100056 5.54253639 7.25100056 5.54253639 8.36002636 6.64978218 C9.13992931 7.44877937 9.91983227 8.24777657 10.72336864 9.07098579 C11.55648067 9.9083326 12.3895927 10.7456794 13.24795055 11.60840034 C15.52768154 13.90310696 17.79837584 16.20633961 20.06583238 18.51316261 C22.44217137 20.92571547 24.83108496 23.32574213 27.21908092 25.72674751 C32.77103724 31.31297133 38.30808912 36.91383373 43.84343243 42.51651192 C50.89167155 49.6493607 57.94580404 56.77631413 65.01485056 63.88854599 C67.39074927 66.2798064 69.76307087 68.67441816 72.12774372 71.07678413 C74.76377472 73.75327355 77.40861354 76.42076343 80.05539989 79.08661079 C80.83732708 79.88560799 81.61925426 80.68460518 82.42487621 81.50781441 C83.14676632 82.23136116 83.86865643 82.95490791 84.61242199 83.70038033 C85.2364343 84.33235329 85.86044661 84.96432625 86.50336838 85.61544991 C88.46231254 87.18937428 89.8675025 87.67734941 92.324687 88.07879829 C92.324687 87.41879829 92.324687 86.75879829 92.324687 86.07879829 C92.984687 86.07879829 93.644687 86.07879829 94.324687 86.07879829 C94.654687 85.08879829 94.984687 84.09879829 95.324687 83.07879829 C95.984687 83.07879829 96.644687 83.07879829 97.324687 83.07879829 C97.324687 82.41879829 97.324687 81.75879829 97.324687 81.07879829 C97.984687 81.07879829 98.644687 81.07879829 99.324687 81.07879829 C99.654687 80.08879829 99.984687 79.09879829 100.324687 78.07879829 C100.984687 78.07879829 101.644687 78.07879829 102.324687 78.07879829 C102.324687 77.41879829 102.324687 76.75879829 102.324687 76.07879829 C102.984687 76.07879829 103.644687 76.07879829 104.324687 76.07879829 C104.654687 75.08879829 104.984687 74.09879829 105.324687 73.07879829 C105.984687 73.07879829 106.644687 73.07879829 107.324687 73.07879829 C107.324687 72.41879829 107.324687 71.75879829 107.324687 71.07879829 C107.984687 71.07879829 108.644687 71.07879829 109.324687 71.07879829 C109.654687 70.08879829 109.984687 69.09879829 110.324687 68.07879829 C110.984687 68.07879829 111.644687 68.07879829 112.324687 68.07879829 C112.324687 67.41879829 112.324687 66.75879829 112.324687 66.07879829 C112.984687 66.07879829 113.644687 66.07879829 114.324687 66.07879829 C114.654687 65.08879829 114.984687 64.09879829 115.324687 63.07879829 C115.984687 63.07879829 116.644687 63.07879829 117.324687 63.07879829 C117.324687 62.41879829 117.324687 61.75879829 117.324687 61.07879829 C117.984687 61.07879829 118.644687 61.07879829 119.324687 61.07879829 C119.654687 60.08879829 119.984687 59.09879829 120.324687 58.07879829 C120.984687 58.07879829 121.644687 58.07879829 122.324687 58.07879829 C122.324687 57.41879829 122.324687 56.75879829 122.324687 56.07879829 C122.984687 56.07879829 123.644687 56.07879829 124.324687 56.07879829 C124.654687 55.08879829 124.984687 54.09879829 125.324687 53.07879829 C125.984687 53.07879829 126.644687 53.07879829 127.324687 53.07879829 C127.324687 52.41879829 127.324687 51.75879829 127.324687 51.07879829 C127.984687 51.07879829 128.644687 51.07879829 129.324687 51.07879829 C129.654687 50.08879829 129.984687 49.09879829 130.324687 48.07879829 C130.984687 48.07879829 131.644687 48.07879829 132.324687 48.07879829 C132.324687 47.41879829 132.324687 46.75879829 132.324687 46.07879829 C132.984687 46.07879829 133.644687 46.07879829 134.324687 46.07879829 C134.654687 45.08879829 134.984687 44.09879829 135.324687 43.07879829 C135.984687 43.07879829 136.644687 43.07879829 137.324687 43.07879829 C137.324687 42.41879829 137.324687 41.75879829 137.324687 41.07879829 C137.984687 41.07879829 138.644687 41.07879829 139.324687 41.07879829 C139.654687 40.08879829 139.984687 39.09879829 140.324687 38.07879829 C140.984687 38.07879829 141.644687 38.07879829 142.324687 38.07879829 C142.324687 37.41879829 142.324687 36.75879829 142.324687 36.07879829 C142.984687 36.07879829 143.644687 36.07879829 144.324687 36.07879829 C144.654687 35.08879829 144.984687 34.09879829 145.324687 33.07879829 C145.984687 33.07879829 146.644687 33.07879829 147.324687 33.07879829 C147.324687 32.41879829 147.324687 31.75879829 147.324687 31.07879829 C147.984687 31.07879829 148.644687 31.07879829 149.324687 31.07879829 C149.654687 30.08879829 149.984687 29.09879829 150.324687 28.07879829 C150.984687 28.07879829 151.644687 28.07879829 152.324687 28.07879829 C152.324687 27.41879829 152.324687 26.75879829 152.324687 26.07879829 C152.984687 26.07879829 153.644687 26.07879829 154.324687 26.07879829 C154.654687 25.08879829 154.984687 24.09879829 155.324687 23.07879829 C155.984687 23.07879829 156.644687 23.07879829 157.324687 23.07879829 C157.324687 22.41879829 157.324687 21.75879829 157.324687 21.07879829 C157.984687 21.07879829 158.644687 21.07879829 159.324687 21.07879829 C159.654687 20.08879829 159.984687 19.09879829 160.324687 18.07879829 C160.984687 18.07879829 161.644687 18.07879829 162.324687 18.07879829 C162.324687 17.41879829 162.324687 16.75879829 162.324687 16.07879829 C162.984687 16.07879829 163.644687 16.07879829 164.324687 16.07879829 C164.654687 15.08879829 164.984687 14.09879829 165.324687 13.07879829 C165.984687 13.07879829 166.644687 13.07879829 167.324687 13.07879829 C167.324687 12.41879829 167.324687 11.75879829 167.324687 11.07879829 C169.304687 11.07879829 171.284687 11.07879829 173.324687 11.07879829 C173.324687 11.73879829 173.324687 12.39879829 173.324687 13.07879829 C174.314687 13.40879829 175.304687 13.73879829 176.324687 14.07879829 C176.324687 14.73879829 176.324687 15.39879829 176.324687 16.07879829 C176.984687 16.07879829 177.644687 16.07879829 178.324687 16.07879829 C178.324687 16.73879829 178.324687 17.39879829 178.324687 18.07879829 C179.314687 18.40879829 180.304687 18.73879829 181.324687 19.07879829 C181.324687 19.73879829 181.324687 20.39879829 181.324687 21.07879829 C181.984687 21.07879829 182.644687 21.07879829 183.324687 21.07879829 C185.12008256 23.16852099 186.79530142 25.25721912 188.449687 27.45379829 C188.91761669 28.05707954 189.38554638 28.66036079 189.86765575 29.28192329 C193.324687 33.81738703 193.324687 33.81738703 193.324687 36.07879829 C193.984687 36.07879829 194.644687 36.07879829 195.324687 36.07879829 C200.41491348 43.24781484 204.62103086 51.11806612 208.324687 59.07879829 C209.129062 60.78036079 209.129062 60.78036079 209.949687 62.51629829 C211.46219509 66.43506924 212.54700433 70.36228697 213.57859325 74.43036079 C214.32364065 77.07508401 215.28272559 79.53875582 216.324687 82.07879829 C226.28282524 115.06513119 220.3574157 153.6504045 204.449687 183.70379829 C197.25614829 196.96789862 197.25614829 196.96789862 193.324687 202.07879829 C192.664687 202.07879829 192.004687 202.07879829 191.324687 202.07879829 C191.056562 202.65114204 190.788437 203.22348579 190.512187 203.81317329 C189.28336064 206.15764464 187.89946524 208.20284767 186.324687 210.32879829 C185.809062 211.03520454 185.293437 211.74161079 184.762187 212.46942329 C184.0506245 213.26606392 184.0506245 213.26606392 183.324687 214.07879829 C182.664687 214.07879829 182.004687 214.07879829 181.324687 214.07879829 C180.994687 215.06879829 180.664687 216.05879829 180.324687 217.07879829 C179.664687 217.07879829 179.004687 217.07879829 178.324687 217.07879829 C178.056562 217.71817329 177.788437 218.35754829 177.512187 219.01629829 C176.324687 221.07879829 176.324687 221.07879829 173.324687 222.07879829 C172.994687 222.73879829 172.664687 223.39879829 172.324687 224.07879829 C171.994687 224.73879829 171.664687 225.39879829 171.324687 226.07879829 C170.334687 226.40879829 169.344687 226.73879829 168.324687 227.07879829 C167.994687 227.73879829 167.664687 228.39879829 167.324687 229.07879829 C166.994687 229.73879829 166.664687 230.39879829 166.324687 231.07879829 C165.334687 231.40879829 164.344687 231.73879829 163.324687 232.07879829 C162.994687 232.73879829 162.664687 233.39879829 162.324687 234.07879829 C161.994687 234.73879829 161.664687 235.39879829 161.324687 236.07879829 C160.334687 236.40879829 159.344687 236.73879829 158.324687 237.07879829 C157.994687 237.73879829 157.664687 238.39879829 157.324687 239.07879829 C156.994687 239.73879829 156.664687 240.39879829 156.324687 241.07879829 C155.334687 241.40879829 154.344687 241.73879829 153.324687 242.07879829 C152.994687 242.73879829 152.664687 243.39879829 152.324687 244.07879829 C151.994687 244.73879829 151.664687 245.39879829 151.324687 246.07879829 C150.334687 246.40879829 149.344687 246.73879829 148.324687 247.07879829 C147.994687 247.73879829 147.664687 248.39879829 147.324687 249.07879829 C146.994687 249.73879829 146.664687 250.39879829 146.324687 251.07879829 C145.334687 251.40879829 144.344687 251.73879829 143.324687 252.07879829 C142.994687 252.73879829 142.664687 253.39879829 142.324687 254.07879829 C141.994687 254.73879829 141.664687 255.39879829 141.324687 256.07879829 C140.334687 256.40879829 139.344687 256.73879829 138.324687 257.07879829 C137.994687 257.73879829 137.664687 258.39879829 137.324687 259.07879829 C136.994687 259.73879829 136.664687 260.39879829 136.324687 261.07879829 C135.334687 261.40879829 134.344687 261.73879829 133.324687 262.07879829 C132.994687 262.73879829 132.664687 263.39879829 132.324687 264.07879829 C131.994687 264.73879829 131.664687 265.39879829 131.324687 266.07879829 C130.334687 266.40879829 129.344687 266.73879829 128.324687 267.07879829 C127.994687 267.73879829 127.664687 268.39879829 127.324687 269.07879829 C126.994687 269.73879829 126.664687 270.39879829 126.324687 271.07879829 C125.334687 271.40879829 124.344687 271.73879829 123.324687 272.07879829 C122.994687 272.73879829 122.664687 273.39879829 122.324687 274.07879829 C121.994687 274.73879829 121.664687 275.39879829 121.324687 276.07879829 C120.334687 276.40879829 119.344687 276.73879829 118.324687 277.07879829 C117.994687 277.73879829 117.664687 278.39879829 117.324687 279.07879829 C116.994687 279.73879829 116.664687 280.39879829 116.324687 281.07879829 C115.334687 281.40879829 114.344687 281.73879829 113.324687 282.07879829 C112.994687 282.73879829 112.664687 283.39879829 112.324687 284.07879829 C111.994687 284.73879829 111.664687 285.39879829 111.324687 286.07879829 C110.334687 286.40879829 109.344687 286.73879829 108.324687 287.07879829 C107.994687 287.73879829 107.664687 288.39879829 107.324687 289.07879829 C106.994687 289.73879829 106.664687 290.39879829 106.324687 291.07879829 C105.334687 291.40879829 104.344687 291.73879829 103.324687 292.07879829 C102.994687 292.73879829 102.664687 293.39879829 102.324687 294.07879829 C101.994687 294.73879829 101.664687 295.39879829 101.324687 296.07879829 C100.334687 296.40879829 99.344687 296.73879829 98.324687 297.07879829 C97.994687 297.73879829 97.664687 298.39879829 97.324687 299.07879829 C96.994687 299.73879829 96.664687 300.39879829 96.324687 301.07879829 C95.334687 301.40879829 94.344687 301.73879829 93.324687 302.07879829 C92.994687 302.73879829 92.664687 303.39879829 92.324687 304.07879829 C91.994687 304.73879829 91.664687 305.39879829 91.324687 306.07879829 C90.334687 306.40879829 89.344687 306.73879829 88.324687 307.07879829 C87.994687 307.73879829 87.664687 308.39879829 87.324687 309.07879829 C86.994687 309.73879829 86.664687 310.39879829 86.324687 311.07879829 C85.334687 311.40879829 84.344687 311.73879829 83.324687 312.07879829 C82.994687 312.73879829 82.664687 313.39879829 82.324687 314.07879829 C81.994687 314.73879829 81.664687 315.39879829 81.324687 316.07879829 C80.334687 316.40879829 79.344687 316.73879829 78.324687 317.07879829 C77.994687 317.73879829 77.664687 318.39879829 77.324687 319.07879829 C76.994687 319.73879829 76.664687 320.39879829 76.324687 321.07879829 C75.334687 321.40879829 74.344687 321.73879829 73.324687 322.07879829 C72.994687 322.73879829 72.664687 323.39879829 72.324687 324.07879829 C71.994687 324.73879829 71.664687 325.39879829 71.324687 326.07879829 C70.334687 326.40879829 69.344687 326.73879829 68.324687 327.07879829 C67.994687 327.73879829 67.664687 328.39879829 67.324687 329.07879829 C66.994687 329.73879829 66.664687 330.39879829 66.324687 331.07879829 C65.334687 331.40879829 64.344687 331.73879829 63.324687 332.07879829 C62.994687 332.73879829 62.664687 333.39879829 62.324687 334.07879829 C61.994687 334.73879829 61.664687 335.39879829 61.324687 336.07879829 C60.334687 336.40879829 59.344687 336.73879829 58.324687 337.07879829 C57.994687 337.73879829 57.664687 338.39879829 57.324687 339.07879829 C56.994687 339.73879829 56.664687 340.39879829 56.324687 341.07879829 C55.334687 341.40879829 54.344687 341.73879829 53.324687 342.07879829 C53.324687 342.73879829 53.324687 343.39879829 53.324687 344.07879829 C51.2074995 346.02411079 51.2074995 346.02411079 48.449687 348.20379829 C47.54476513 348.92825142 46.63984325 349.65270454 45.7074995 350.39911079 C43.324687 352.07879829 43.324687 352.07879829 41.324687 352.07879829 C41.324687 352.73879829 41.324687 353.39879829 41.324687 354.07879829 C31.80356826 361.37671165 21.48136916 366.82456574 10.324687 371.07879829 C8.5737676 371.7848559 6.82375178 372.49315878 5.074687 373.20379829 C-27.47579598 386.42060514 -65.30438931 384.36984844 -97.55421925 371.42254829 C-114.07998043 364.30757727 -129.49116923 354.36402317 -142.675313 342.07879829 C-142.675313 341.41879829 -142.675313 340.75879829 -142.675313 340.07879829 C-143.665313 339.74879829 -144.655313 339.41879829 -145.675313 339.07879829 C-145.675313 338.41879829 -145.675313 337.75879829 -145.675313 337.07879829 C-146.335313 337.07879829 -146.995313 337.07879829 -147.675313 337.07879829 C-147.675313 336.41879829 -147.675313 335.75879829 -147.675313 335.07879829 C-148.665313 334.74879829 -149.655313 334.41879829 -150.675313 334.07879829 C-150.675313 332.42879829 -150.675313 330.77879829 -150.675313 329.07879829 C-149.685313 328.74879829 -148.695313 328.41879829 -147.675313 328.07879829 C-147.675313 327.41879829 -147.675313 326.75879829 -147.675313 326.07879829 C-147.015313 326.07879829 -146.355313 326.07879829 -145.675313 326.07879829 C-145.345313 325.08879829 -145.015313 324.09879829 -144.675313 323.07879829 C-144.015313 323.07879829 -143.355313 323.07879829 -142.675313 323.07879829 C-142.675313 322.41879829 -142.675313 321.75879829 -142.675313 321.07879829 C-142.015313 321.07879829 -141.355313 321.07879829 -140.675313 321.07879829 C-140.345313 320.08879829 -140.015313 319.09879829 -139.675313 318.07879829 C-139.015313 318.07879829 -138.355313 318.07879829 -137.675313 318.07879829 C-137.675313 317.41879829 -137.675313 316.75879829 -137.675313 316.07879829 C-137.015313 316.07879829 -136.355313 316.07879829 -135.675313 316.07879829 C-135.345313 315.08879829 -135.015313 314.09879829 -134.675313 313.07879829 C-134.015313 313.07879829 -133.355313 313.07879829 -132.675313 313.07879829 C-132.675313 312.41879829 -132.675313 311.75879829 -132.675313 311.07879829 C-132.015313 311.07879829 -131.355313 311.07879829 -130.675313 311.07879829 C-130.345313 310.08879829 -130.015313 309.09879829 -129.675313 308.07879829 C-129.015313 308.07879829 -128.355313 308.07879829 -127.675313 308.07879829 C-127.675313 307.41879829 -127.675313 306.75879829 -127.675313 306.07879829 C-127.015313 306.07879829 -126.355313 306.07879829 -125.675313 306.07879829 C-125.345313 305.08879829 -125.015313 304.09879829 -124.675313 303.07879829 C-124.015313 303.07879829 -123.355313 303.07879829 -122.675313 303.07879829 C-122.675313 302.41879829 -122.675313 301.75879829 -122.675313 301.07879829 C-122.015313 301.07879829 -121.355313 301.07879829 -120.675313 301.07879829 C-120.345313 300.08879829 -120.015313 299.09879829 -119.675313 298.07879829 C-119.015313 298.07879829 -118.355313 298.07879829 -117.675313 298.07879829 C-117.675313 297.41879829 -117.675313 296.75879829 -117.675313 296.07879829 C-117.015313 296.07879829 -116.355313 296.07879829 -115.675313 296.07879829 C-115.345313 295.08879829 -115.015313 294.09879829 -114.675313 293.07879829 C-114.015313 293.07879829 -113.355313 293.07879829 -112.675313 293.07879829 C-112.675313 292.41879829 -112.675313 291.75879829 -112.675313 291.07879829 C-112.015313 291.07879829 -111.355313 291.07879829 -110.675313 291.07879829 C-110.345313 290.08879829 -110.015313 289.09879829 -109.675313 288.07879829 C-109.015313 288.07879829 -108.355313 288.07879829 -107.675313 288.07879829 C-107.675313 287.41879829 -107.675313 286.75879829 -107.675313 286.07879829 C-107.015313 286.07879829 -106.355313 286.07879829 -105.675313 286.07879829 C-105.345313 285.08879829 -105.015313 284.09879829 -104.675313 283.07879829 C-104.015313 283.07879829 -103.355313 283.07879829 -102.675313 283.07879829 C-102.675313 282.41879829 -102.675313 281.75879829 -102.675313 281.07879829 C-102.015313 281.07879829 -101.355313 281.07879829 -100.675313 281.07879829 C-100.345313 280.08879829 -100.015313 279.09879829 -99.675313 278.07879829 C-99.015313 278.07879829 -98.355313 278.07879829 -97.675313 278.07879829 C-97.675313 277.41879829 -97.675313 276.75879829 -97.675313 276.07879829 C-97.015313 276.07879829 -96.355313 276.07879829 -95.675313 276.07879829 C-95.345313 275.08879829 -95.015313 274.09879829 -94.675313 273.07879829 C-94.015313 273.07879829 -93.355313 273.07879829 -92.675313 273.07879829 C-92.675313 272.41879829 -92.675313 271.75879829 -92.675313 271.07879829 C-92.015313 271.07879829 -91.355313 271.07879829 -90.675313 271.07879829 C-90.345313 270.08879829 -90.015313 269.09879829 -89.675313 268.07879829 C-89.015313 268.07879829 -88.355313 268.07879829 -87.675313 268.07879829 C-87.675313 267.41879829 -87.675313 266.75879829 -87.675313 266.07879829 C-87.015313 266.07879829 -86.355313 266.07879829 -85.675313 266.07879829 C-85.345313 265.08879829 -85.015313 264.09879829 -84.675313 263.07879829 C-84.015313 263.07879829 -83.355313 263.07879829 -82.675313 263.07879829 C-82.675313 262.41879829 -82.675313 261.75879829 -82.675313 261.07879829 C-82.015313 261.07879829 -81.355313 261.07879829 -80.675313 261.07879829 C-80.345313 260.08879829 -80.015313 259.09879829 -79.675313 258.07879829 C-79.015313 258.07879829 -78.355313 258.07879829 -77.675313 258.07879829 C-77.675313 257.41879829 -77.675313 256.75879829 -77.675313 256.07879829 C-77.015313 256.07879829 -76.355313 256.07879829 -75.675313 256.07879829 C-75.345313 255.08879829 -75.015313 254.09879829 -74.675313 253.07879829 C-74.015313 253.07879829 -73.355313 253.07879829 -72.675313 253.07879829 C-72.675313 252.08879829 -72.675313 251.09879829 -72.675313 250.07879829 C-73.665313 249.74879829 -74.655313 249.41879829 -75.675313 249.07879829 C-75.675313 248.41879829 -75.675313 247.75879829 -75.675313 247.07879829 C-76.335313 247.07879829 -76.995313 247.07879829 -77.675313 247.07879829 C-77.675313 246.41879829 -77.675313 245.75879829 -77.675313 245.07879829 C-78.665313 244.74879829 -79.655313 244.41879829 -80.675313 244.07879829 C-80.675313 243.41879829 -80.675313 242.75879829 -80.675313 242.07879829 C-81.335313 242.07879829 -81.995313 242.07879829 -82.675313 242.07879829 C-82.675313 241.41879829 -82.675313 240.75879829 -82.675313 240.07879829 C-83.665313 239.74879829 -84.655313 239.41879829 -85.675313 239.07879829 C-85.675313 238.41879829 -85.675313 237.75879829 -85.675313 237.07879829 C-86.335313 237.07879829 -86.995313 237.07879829 -87.675313 237.07879829 C-87.675313 236.41879829 -87.675313 235.75879829 -87.675313 235.07879829 C-88.665313 234.74879829 -89.655313 234.41879829 -90.675313 234.07879829 C-90.675313 233.41879829 -90.675313 232.75879829 -90.675313 232.07879829 C-91.335313 232.07879829 -91.995313 232.07879829 -92.675313 232.07879829 C-92.675313 231.41879829 -92.675313 230.75879829 -92.675313 230.07879829 C-93.665313 229.74879829 -94.655313 229.41879829 -95.675313 229.07879829 C-95.675313 228.41879829 -95.675313 227.75879829 -95.675313 227.07879829 C-96.335313 227.07879829 -96.995313 227.07879829 -97.675313 227.07879829 C-97.675313 226.41879829 -97.675313 225.75879829 -97.675313 225.07879829 C-98.665313 224.74879829 -99.655313 224.41879829 -100.675313 224.07879829 C-100.675313 223.41879829 -100.675313 222.75879829 -100.675313 222.07879829 C-101.335313 222.07879829 -101.995313 222.07879829 -102.675313 222.07879829 C-102.675313 221.41879829 -102.675313 220.75879829 -102.675313 220.07879829 C-103.665313 219.74879829 -104.655313 219.41879829 -105.675313 219.07879829 C-105.675313 218.41879829 -105.675313 217.75879829 -105.675313 217.07879829 C-106.335313 217.07879829 -106.995313 217.07879829 -107.675313 217.07879829 C-107.675313 216.41879829 -107.675313 215.75879829 -107.675313 215.07879829 C-108.665313 214.74879829 -109.655313 214.41879829 -110.675313 214.07879829 C-110.675313 213.41879829 -110.675313 212.75879829 -110.675313 212.07879829 C-111.335313 212.07879829 -111.995313 212.07879829 -112.675313 212.07879829 C-112.675313 211.41879829 -112.675313 210.75879829 -112.675313 210.07879829 C-113.665313 209.74879829 -114.655313 209.41879829 -115.675313 209.07879829 C-115.675313 208.41879829 -115.675313 207.75879829 -115.675313 207.07879829 C-116.335313 207.07879829 -116.995313 207.07879829 -117.675313 207.07879829 C-117.675313 206.41879829 -117.675313 205.75879829 -117.675313 205.07879829 C-118.665313 204.74879829 -119.655313 204.41879829 -120.675313 204.07879829 C-120.675313 203.41879829 -120.675313 202.75879829 -120.675313 202.07879829 C-121.335313 202.07879829 -121.995313 202.07879829 -122.675313 202.07879829 C-122.675313 201.41879829 -122.675313 200.75879829 -122.675313 200.07879829 C-123.665313 199.74879829 -124.655313 199.41879829 -125.675313 199.07879829 C-125.675313 198.41879829 -125.675313 197.75879829 -125.675313 197.07879829 C-126.335313 197.07879829 -126.995313 197.07879829 -127.675313 197.07879829 C-127.675313 196.41879829 -127.675313 195.75879829 -127.675313 195.07879829 C-128.665313 194.74879829 -129.655313 194.41879829 -130.675313 194.07879829 C-130.675313 193.41879829 -130.675313 192.75879829 -130.675313 192.07879829 C-131.335313 192.07879829 -131.995313 192.07879829 -132.675313 192.07879829 C-132.675313 191.41879829 -132.675313 190.75879829 -132.675313 190.07879829 C-133.665313 189.74879829 -134.655313 189.41879829 -135.675313 189.07879829 C-135.675313 188.41879829 -135.675313 187.75879829 -135.675313 187.07879829 C-136.335313 187.07879829 -136.995313 187.07879829 -137.675313 187.07879829 C-137.675313 186.41879829 -137.675313 185.75879829 -137.675313 185.07879829 C-138.665313 184.74879829 -139.655313 184.41879829 -140.675313 184.07879829 C-140.675313 183.41879829 -140.675313 182.75879829 -140.675313 182.07879829 C-141.335313 182.07879829 -141.995313 182.07879829 -142.675313 182.07879829 C-142.675313 181.41879829 -142.675313 180.75879829 -142.675313 180.07879829 C-143.665313 179.74879829 -144.655313 179.41879829 -145.675313 179.07879829 C-145.675313 178.41879829 -145.675313 177.75879829 -145.675313 177.07879829 C-146.335313 177.07879829 -146.995313 177.07879829 -147.675313 177.07879829 C-147.675313 176.41879829 -147.675313 175.75879829 -147.675313 175.07879829 C-148.665313 174.74879829 -149.655313 174.41879829 -150.675313 174.07879829 C-150.675313 173.41879829 -150.675313 172.75879829 -150.675313 172.07879829 C-151.335313 172.07879829 -151.995313 172.07879829 -152.675313 172.07879829 C-152.675313 171.41879829 -152.675313 170.75879829 -152.675313 170.07879829 C-153.665313 169.74879829 -154.655313 169.41879829 -155.675313 169.07879829 C-155.675313 168.41879829 -155.675313 167.75879829 -155.675313 167.07879829 C-156.335313 167.07879829 -156.995313 167.07879829 -157.675313 167.07879829 C-157.675313 166.41879829 -157.675313 165.75879829 -157.675313 165.07879829 C-158.665313 164.74879829 -159.655313 164.41879829 -160.675313 164.07879829 C-161.54296017 161.99406433 -161.54296017 161.99406433 -161.675313 159.07879829 C-159.79724027 156.59631648 -158.0000907 154.59388579 -155.79295826 152.4345417 C-154.8256044 151.45314793 -154.8256044 151.45314793 -153.83870804 150.45192802 C-151.6640871 148.25328717 -149.46853608 146.07681606 -147.27248096 143.89959908 C-145.71300778 142.33199976 -144.15481478 140.763126 -142.59781361 139.19307137 C-138.35744108 134.92527664 -134.09822331 130.67676225 -129.83463907 126.43217134 C-125.38235314 121.99503947 -120.94468387 117.54332905 -116.50468922 113.0939045 C-108.56669865 105.14428679 -100.61364123 97.20991588 -92.65460993 89.28138123 C-85.43522519 82.08880399 -78.2317171 74.88064002 -71.03957081 67.66082954 C-62.69224358 59.28140997 -54.33492935 50.91211789 -45.96266568 42.55759799 C-41.5290798 38.1333831 -37.0996874 33.70517459 -32.68068027 29.26639366 C-28.52621486 25.09464061 -24.35743194 20.93775447 -20.1769743 16.79205322 C-18.64190915 15.26494555 -17.11197129 13.73266464 -15.58748913 12.19499207 C-13.51169831 10.10289836 -11.41846805 8.03002444 -9.31956959 5.96115303 C-8.7147909 5.34299001 -8.1100122 4.72482699 -7.48690689 4.08793175 C-3.38496653 0.09970033 -3.38496653 0.09970033 0 0 Z " fill="#000000" transform="translate(854.6753129959106,705.9212017059326)"/>
<path d="M0 0 C4.60291866 0.75734234 6.94886329 3.84197885 10.14240837 7.08565807 C11.2218074 8.15229882 11.2218074 8.15229882 12.32301247 9.24048787 C14.7402982 11.63542102 17.13925105 14.04791983 19.53867912 16.46073437 C21.26412602 18.17777259 22.99062781 19.89375129 24.71810722 21.60874462 C28.92535068 25.7916813 33.12068503 29.98632995 37.31026463 34.18694022 C40.71458014 37.59980732 44.12354969 41.00795833 47.53590584 44.41278553 C48.02120533 44.89703013 48.50650482 45.38127473 49.00651035 45.88019342 C49.9923355 46.86384769 50.97816859 47.84749401 51.96400954 48.83113245 C61.21123929 58.05892432 70.44268291 67.30238208 79.66908397 76.55099282 C87.59050684 84.49067144 95.52639809 92.41564898 103.47276115 100.33036327 C112.69592781 109.5167981 121.90918776 118.71299426 131.10740292 127.92441732 C132.08773532 128.90609085 133.06808381 129.88774832 134.04844856 130.86938953 C134.53083363 131.35240527 135.0132187 131.83542101 135.5102215 132.33307358 C138.91446033 135.74034387 142.32580165 139.1404023 145.73999977 142.53769016 C150.33246542 147.10775193 154.90903722 151.69334368 159.47505188 156.28983593 C161.15696262 157.97810314 162.84404958 159.66123102 164.53652954 161.33890247 C166.83877134 163.62262072 169.1218994 165.92385308 171.40095329 168.2306776 C172.08137149 168.89702935 172.76178968 169.56338109 173.46282661 170.24992532 C177.88405084 174.78107161 177.88405084 174.78107161 177.91743469 178.25265503 C176.60891553 181.08579789 175.0289485 183.20781934 172.8907299 185.47562695 C172.2307299 185.47562695 171.5707299 185.47562695 170.8907299 185.47562695 C170.8907299 186.13562695 170.8907299 186.79562695 170.8907299 187.47562695 C169.5157299 189.10062695 169.5157299 189.10062695 167.8907299 190.47562695 C167.2307299 190.47562695 166.5707299 190.47562695 165.8907299 190.47562695 C165.8907299 191.13562695 165.8907299 191.79562695 165.8907299 192.47562695 C164.5157299 194.10062695 164.5157299 194.10062695 162.8907299 195.47562695 C162.2307299 195.47562695 161.5707299 195.47562695 160.8907299 195.47562695 C160.8907299 196.13562695 160.8907299 196.79562695 160.8907299 197.47562695 C159.5157299 199.10062695 159.5157299 199.10062695 157.8907299 200.47562695 C157.2307299 200.47562695 156.5707299 200.47562695 155.8907299 200.47562695 C155.8907299 201.13562695 155.8907299 201.79562695 155.8907299 202.47562695 C154.5157299 204.10062695 154.5157299 204.10062695 152.8907299 205.47562695 C152.2307299 205.47562695 151.5707299 205.47562695 150.8907299 205.47562695 C150.8907299 206.13562695 150.8907299 206.79562695 150.8907299 207.47562695 C149.5157299 209.10062695 149.5157299 209.10062695 147.8907299 210.47562695 C147.2307299 210.47562695 146.5707299 210.47562695 145.8907299 210.47562695 C145.8907299 211.13562695 145.8907299 211.79562695 145.8907299 212.47562695 C144.5157299 214.10062695 144.5157299 214.10062695 142.8907299 215.47562695 C142.2307299 215.47562695 141.5707299 215.47562695 140.8907299 215.47562695 C140.8907299 216.13562695 140.8907299 216.79562695 140.8907299 217.47562695 C139.5157299 219.10062695 139.5157299 219.10062695 137.8907299 220.47562695 C137.2307299 220.47562695 136.5707299 220.47562695 135.8907299 220.47562695 C135.8907299 221.13562695 135.8907299 221.79562695 135.8907299 222.47562695 C134.5157299 224.10062695 134.5157299 224.10062695 132.8907299 225.47562695 C132.2307299 225.47562695 131.5707299 225.47562695 130.8907299 225.47562695 C130.8907299 226.13562695 130.8907299 226.79562695 130.8907299 227.47562695 C129.5157299 229.10062695 129.5157299 229.10062695 127.8907299 230.47562695 C127.2307299 230.47562695 126.5707299 230.47562695 125.8907299 230.47562695 C125.8907299 231.13562695 125.8907299 231.79562695 125.8907299 232.47562695 C124.5157299 234.10062695 124.5157299 234.10062695 122.8907299 235.47562695 C122.2307299 235.47562695 121.5707299 235.47562695 120.8907299 235.47562695 C120.8907299 236.13562695 120.8907299 236.79562695 120.8907299 237.47562695 C119.5157299 239.10062695 119.5157299 239.10062695 117.8907299 240.47562695 C117.2307299 240.47562695 116.5707299 240.47562695 115.8907299 240.47562695 C115.8907299 241.13562695 115.8907299 241.79562695 115.8907299 242.47562695 C114.5157299 244.10062695 114.5157299 244.10062695 112.8907299 245.47562695 C112.2307299 245.47562695 111.5707299 245.47562695 110.8907299 245.47562695 C110.8907299 246.13562695 110.8907299 246.79562695 110.8907299 247.47562695 C109.5157299 249.10062695 109.5157299 249.10062695 107.8907299 250.47562695 C107.2307299 250.47562695 106.5707299 250.47562695 105.8907299 250.47562695 C105.8907299 251.13562695 105.8907299 251.79562695 105.8907299 252.47562695 C104.5157299 254.10062695 104.5157299 254.10062695 102.8907299 255.47562695 C102.2307299 255.47562695 101.5707299 255.47562695 100.8907299 255.47562695 C100.8907299 256.13562695 100.8907299 256.79562695 100.8907299 257.47562695 C99.5157299 259.10062695 99.5157299 259.10062695 97.8907299 260.47562695 C97.2307299 260.47562695 96.5707299 260.47562695 95.8907299 260.47562695 C95.8907299 261.13562695 95.8907299 261.79562695 95.8907299 262.47562695 C94.5157299 264.10062695 94.5157299 264.10062695 92.8907299 265.47562695 C92.2307299 265.47562695 91.5707299 265.47562695 90.8907299 265.47562695 C90.8907299 266.13562695 90.8907299 266.79562695 90.8907299 267.47562695 C89.5157299 269.10062695 89.5157299 269.10062695 87.8907299 270.47562695 C87.2307299 270.47562695 86.5707299 270.47562695 85.8907299 270.47562695 C85.8907299 271.13562695 85.8907299 271.79562695 85.8907299 272.47562695 C84.5157299 274.10062695 84.5157299 274.10062695 82.8907299 275.47562695 C82.2307299 275.47562695 81.5707299 275.47562695 80.8907299 275.47562695 C80.8907299 276.13562695 80.8907299 276.79562695 80.8907299 277.47562695 C79.5157299 279.10062695 79.5157299 279.10062695 77.8907299 280.47562695 C77.2307299 280.47562695 76.5707299 280.47562695 75.8907299 280.47562695 C75.8907299 281.13562695 75.8907299 281.79562695 75.8907299 282.47562695 C74.1407299 284.16312695 74.1407299 284.16312695 71.8907299 285.47562695 C68.61963397 285.07015299 66.96513397 283.9267648 64.66270542 281.63350582 C64.0445303 281.02500404 63.42635518 280.41650226 62.78944749 279.78956103 C62.11950078 279.11496852 61.44955408 278.44037601 60.75930595 277.7453413 C60.04056103 277.03339304 59.3218161 276.32144478 58.58129102 275.58792233 C56.1657451 273.19142412 53.76110822 270.78426974 51.35630608 268.37699413 C49.63057838 266.66023903 47.90423495 264.94410268 46.17732048 263.22854137 C41.97036063 259.04537262 37.77063936 254.85502494 33.57472541 250.66078344 C30.16542731 247.2529102 26.75377152 243.84741555 23.34043121 240.44359112 C13.66805106 230.79762912 4.00198512 221.14540293 -5.65607039 211.48509809 C-6.17679573 210.96425289 -6.69752106 210.44340768 -7.23402596 209.90677929 C-7.75538384 209.38529876 -8.27674173 208.86381823 -8.81389835 208.32653525 C-17.27003776 199.8691756 -25.74105247 191.42689132 -34.21891133 182.99130902 C-42.91902471 174.33424001 -51.6079515 165.66608212 -60.28527278 156.98616624 C-65.1591287 152.11131296 -70.03753057 147.24121555 -74.9279747 142.38299847 C-79.52427239 137.81679574 -84.10498906 133.23534159 -88.67529869 128.64312458 C-90.35881711 126.95645503 -92.04751582 125.27493861 -93.74161148 123.59889317 C-96.04606674 121.3174168 -98.33143797 119.01841615 -100.61276436 116.71384716 C-101.29386467 116.04817754 -101.97496499 115.38250791 -102.6767047 114.69666648 C-107.10263757 110.16982762 -107.10263757 110.16982762 -107.13639545 106.63651943 C-105.88248815 103.99851732 -104.62623446 102.92478824 -102.1092701 101.47562695 C-101.4492701 101.47562695 -100.7892701 101.47562695 -100.1092701 101.47562695 C-100.1092701 100.81562695 -100.1092701 100.15562695 -100.1092701 99.47562695 C-98.66760074 98.21900628 -97.16553094 97.03170858 -95.64491463 95.87186718 C-87.35790917 89.23094921 -80.02095411 81.6555556 -72.5389576 74.1357832 C-70.96560313 72.56123442 -69.39187638 70.98705755 -67.81779671 69.41323376 C-64.54205016 66.13593289 -61.26966158 62.8553295 -57.9998951 59.57206249 C-53.80287388 55.35793316 -49.59917973 51.15053676 -45.39321899 46.94533157 C-42.15369378 43.70553517 -38.91677509 40.46314544 -35.68074608 37.21985722 C-34.1303392 35.66626502 -32.57932313 34.11328051 -31.02769279 32.56091022 C-28.87119937 30.40225858 -26.71802411 28.24035374 -24.56581306 26.07743359 C-23.9227874 25.43486111 -23.27976173 24.79228863 -22.61725044 24.13024426 C-19.48449226 21.09060948 -19.48449226 21.09060948 -17.1092701 17.47562695 C-16.4492701 17.47562695 -15.7892701 17.47562695 -15.1092701 17.47562695 C-14.7070826 16.60164257 -14.7070826 16.60164257 -14.2967701 15.71000195 C-13.09446019 13.44776094 -11.77101097 11.66986377 -10.1092701 9.72562695 C-9.5936451 9.1120332 -9.0780201 8.49843945 -8.5467701 7.86625195 C-7.1092701 6.47562695 -7.1092701 6.47562695 -5.1092701 6.47562695 C-4.6452076 5.26906445 -4.6452076 5.26906445 -4.1717701 4.03812695 C-2.75501102 0.6212374 -2.75501102 0.6212374 0 0 Z " fill="#000000" transform="translate(1077.1092700958252,982.5243730545044)"/>
<path d="M0 0 C2.3125 -0.25 2.3125 -0.25 5 0 C6.97610386 2.04424538 8 3.1176825 8 6 C8.66 6 9.32 6 10 6 C11.69140625 7.64453125 11.69140625 7.64453125 13.5625 9.8125 C14.18253906 10.52019531 14.80257812 11.22789062 15.44140625 11.95703125 C17 14 17 14 18 17 C18.66 17 19.32 17 20 17 C21.55078125 18.57421875 21.55078125 18.57421875 23.3125 20.6875 C26.08284781 23.94538314 28.933607 27.01430155 32 30 C82 80 82 80 84.2421875 82.26953125 C87.31179983 85.30870834 90.45197753 88.25716304 93.625 91.1875 C94.19734375 91.72052734 94.7696875 92.25355469 95.359375 92.80273438 C97.82346718 95.08058703 100.20218996 97.13479331 103 99 C103 99.66 103 100.32 103 101 C103.598125 101.28875 104.19625 101.5775 104.8125 101.875 C107 103 107 103 110 105 C109.78191506 110.65595155 106.05045903 113.50752214 102.26298523 117.24494934 C101.5503314 117.96384313 100.83767758 118.68273692 100.10342818 119.42341536 C97.70690609 121.83592449 95.29629957 124.23384638 92.88549805 126.63208008 C91.1668923 128.3561043 89.44913903 130.08097868 87.73217773 131.80664062 C83.54702056 136.00816683 79.3525307 140.20022917 75.15339478 144.38777301 C71.74173522 147.79040325 68.3339948 151.1969125 64.92902565 154.60623741 C64.44462781 155.09124818 63.96022998 155.57625895 63.46115342 156.07596701 C62.47717392 157.06122539 61.49320341 158.04649275 60.5092418 159.031769 C51.28077735 168.27164155 42.04008843 177.49921021 32.79518179 186.72262754 C24.85884792 194.64108457 16.93306821 202.56997863 9.01489258 210.5065918 C-0.17682653 219.71970381 -9.37498285 228.92630905 -18.5835492 238.12258452 C-19.56490065 239.10266175 -20.54624373 240.08274735 -21.52757835 241.06284142 C-22.25187054 241.78620795 -22.25187054 241.78620795 -22.9907949 242.52418796 C-26.39701791 245.92695374 -29.79857 249.33434639 -33.19835854 252.74353981 C-37.77135854 257.32891159 -42.3548463 261.90362602 -46.94561005 266.47121429 C-48.63254605 268.15284422 -50.31605585 269.83791893 -51.99593925 271.52659416 C-54.28221377 273.82373179 -56.58034042 276.10829702 -58.8820343 278.38996887 C-59.55061677 279.06747423 -60.21919923 279.74497958 -60.90804178 280.4430154 C-61.5249835 281.04952613 -62.14192522 281.65603686 -62.77756214 282.2809267 C-63.30710965 282.8098248 -63.83665716 283.3387229 -64.38225156 283.88364822 C-66 285 -66 285 -70 285 C-71.57711029 283.59540844 -71.57711029 283.59540844 -73.13708496 281.61405945 C-77.38702222 276.47320293 -82.05850637 271.85392941 -86.80664062 267.17504883 C-87.77506948 266.21674807 -88.74322156 265.25816754 -89.71112061 264.29933167 C-91.77949178 262.25091807 -93.84921967 260.20388883 -95.9198761 258.15778542 C-99.19321032 254.92208948 -102.45984838 251.67968973 -105.72497559 248.43571472 C-106.27781676 247.88651094 -106.83065793 247.33730715 -107.40025187 246.77146083 C-108.52959207 245.64952435 -109.65891672 244.52757221 -110.78822613 243.40560472 C-118.37979014 235.86392138 -125.97570791 228.32676186 -133.58984375 220.80786133 C-138.74221965 215.71982924 -143.88395391 210.62130861 -149.01355124 205.5103094 C-151.72466713 202.80987939 -154.44100896 200.1152086 -157.17048645 197.43332863 C-159.73117733 194.91714572 -162.27767156 192.38744392 -164.81381989 189.84653282 C-166.19348593 188.47167519 -167.58806433 187.11183346 -168.98297119 185.75244141 C-170.20261566 184.5225927 -170.20261566 184.5225927 -171.44689941 183.26789856 C-172.16141518 182.56021237 -172.87593094 181.85252619 -173.61209869 181.12339497 C-175 179 -175 179 -174.72206879 176.23325634 C-174.48378609 175.49628175 -174.24550339 174.75930716 -174 174 C-173.01 173.67 -172.02 173.34 -171 173 C-171 172.34 -171 171.68 -171 171 C-170.34 171 -169.68 171 -169 171 C-168.67 170.01 -168.34 169.02 -168 168 C-167.34 168 -166.68 168 -166 168 C-166 167.34 -166 166.68 -166 166 C-165.34 166 -164.68 166 -164 166 C-163.67 165.01 -163.34 164.02 -163 163 C-162.34 163 -161.68 163 -161 163 C-161 162.34 -161 161.68 -161 161 C-160.34 161 -159.68 161 -159 161 C-158.67 160.01 -158.34 159.02 -158 158 C-157.34 158 -156.68 158 -156 158 C-156 157.34 -156 156.68 -156 156 C-155.34 156 -154.68 156 -154 156 C-153.67 155.01 -153.34 154.02 -153 153 C-152.34 153 -151.68 153 -151 153 C-151 152.34 -151 151.68 -151 151 C-150.34 151 -149.68 151 -149 151 C-148.67 150.01 -148.34 149.02 -148 148 C-147.34 148 -146.68 148 -146 148 C-146 147.34 -146 146.68 -146 146 C-145.34 146 -144.68 146 -144 146 C-143.67 145.01 -143.34 144.02 -143 143 C-142.34 143 -141.68 143 -141 143 C-141 142.34 -141 141.68 -141 141 C-140.34 141 -139.68 141 -139 141 C-138.67 140.01 -138.34 139.02 -138 138 C-137.34 138 -136.68 138 -136 138 C-136 137.34 -136 136.68 -136 136 C-135.34 136 -134.68 136 -134 136 C-133.67 135.01 -133.34 134.02 -133 133 C-132.34 133 -131.68 133 -131 133 C-131 132.34 -131 131.68 -131 131 C-130.34 131 -129.68 131 -129 131 C-128.67 130.01 -128.34 129.02 -128 128 C-127.34 128 -126.68 128 -126 128 C-126 127.34 -126 126.68 -126 126 C-125.34 126 -124.68 126 -124 126 C-123.505 124.515 -123.505 124.515 -123 123 C-122.34 123 -121.68 123 -121 123 C-121 122.34 -121 121.68 -121 121 C-120.34 121 -119.68 121 -119 121 C-118.505 119.515 -118.505 119.515 -118 118 C-117.34 118 -116.68 118 -116 118 C-116 117.34 -116 116.68 -116 116 C-115.34 116 -114.68 116 -114 116 C-113.505 114.515 -113.505 114.515 -113 113 C-112.34 113 -111.68 113 -111 113 C-111 112.34 -111 111.68 -111 111 C-110.34 111 -109.68 111 -109 111 C-108.505 109.515 -108.505 109.515 -108 108 C-107.34 108 -106.68 108 -106 108 C-106 107.34 -106 106.68 -106 106 C-105.34 106 -104.68 106 -104 106 C-103.505 104.515 -103.505 104.515 -103 103 C-102.34 103 -101.68 103 -101 103 C-101 102.34 -101 101.68 -101 101 C-100.34 101 -99.68 101 -99 101 C-98.731875 100.360625 -98.46375 99.72125 -98.1875 99.0625 C-97 97 -97 97 -94 96 C-93.505 94.515 -93.505 94.515 -93 93 C-92.34 93 -91.68 93 -91 93 C-91 92.34 -91 91.68 -91 91 C-90.34 91 -89.68 91 -89 91 C-88.731875 90.360625 -88.46375 89.72125 -88.1875 89.0625 C-87 87 -87 87 -84 86 C-83.505 84.515 -83.505 84.515 -83 83 C-82.34 83 -81.68 83 -81 83 C-81 82.34 -81 81.68 -81 81 C-80.34 81 -79.68 81 -79 81 C-78.505 79.515 -78.505 79.515 -78 78 C-77.34 78 -76.68 78 -76 78 C-76 77.34 -76 76.68 -76 76 C-75.34 76 -74.68 76 -74 76 C-73.505 74.515 -73.505 74.515 -73 73 C-72.34 73 -71.68 73 -71 73 C-71 72.34 -71 71.68 -71 71 C-70.34 71 -69.68 71 -69 71 C-68.505 69.515 -68.505 69.515 -68 68 C-67.34 68 -66.68 68 -66 68 C-66 67.34 -66 66.68 -66 66 C-65.34 66 -64.68 66 -64 66 C-63.505 64.515 -63.505 64.515 -63 63 C-62.34 63 -61.68 63 -61 63 C-61 62.34 -61 61.68 -61 61 C-60.34 61 -59.68 61 -59 61 C-58.67 60.01 -58.34 59.02 -58 58 C-57.34 58 -56.68 58 -56 58 C-56 57.34 -56 56.68 -56 56 C-55.34 56 -54.68 56 -54 56 C-53.67 55.01 -53.34 54.02 -53 53 C-52.34 53 -51.68 53 -51 53 C-51 52.34 -51 51.68 -51 51 C-50.34 51 -49.68 51 -49 51 C-48.67 50.01 -48.34 49.02 -48 48 C-47.34 48 -46.68 48 -46 48 C-46 47.34 -46 46.68 -46 46 C-45.34 46 -44.68 46 -44 46 C-43.67 45.01 -43.34 44.02 -43 43 C-42.34 43 -41.68 43 -41 43 C-41 42.34 -41 41.68 -41 41 C-40.34 41 -39.68 41 -39 41 C-38.67 40.01 -38.34 39.02 -38 38 C-37.34 38 -36.68 38 -36 38 C-36 37.34 -36 36.68 -36 36 C-35.34 36 -34.68 36 -34 36 C-33.67 35.01 -33.34 34.02 -33 33 C-32.34 33 -31.68 33 -31 33 C-31 32.34 -31 31.68 -31 31 C-30.34 31 -29.68 31 -29 31 C-28.67 30.01 -28.34 29.02 -28 28 C-27.34 28 -26.68 28 -26 28 C-26 27.34 -26 26.68 -26 26 C-25.34 26 -24.68 26 -24 26 C-23.67 25.01 -23.34 24.02 -23 23 C-22.34 23 -21.68 23 -21 23 C-20.731875 22.360625 -20.46375 21.72125 -20.1875 21.0625 C-19 19 -19 19 -16 18 C-16 17.34 -16 16.68 -16 16 C-15.34 16 -14.68 16 -14 16 C-13.67 15.01 -13.34 14.02 -13 13 C-12.34 13 -11.68 13 -11 13 C-10.5978125 12.0409375 -10.5978125 12.0409375 -10.1875 11.0625 C-9 9 -9 9 -6 8 C-6 7.34 -6 6.68 -6 6 C-5.34 6 -4.68 6 -4 6 C-3.67 5.01 -3.34 4.02 -3 3 C-2.34 3 -1.68 3 -1 3 C-0.67 2.01 -0.34 1.02 0 0 Z " fill="#000000" transform="translate(200,983)"/>
</svg>
